<?xml version="1.0" encoding="UTF-8"?>
<svg version="1.1" xmlns="http://www.w3.org/2000/svg" width="1517" height="512">
<path d="M0 0 C1.76682129 0.16072998 1.76682129 0.16072998 3.56933594 0.32470703 C37.86421216 3.56728616 66.65594456 12.81156973 92 37 C92.81416382 37.77150391 92.81416382 37.77150391 93.64477539 38.55859375 C129.99059165 73.79335901 130.28527293 128.93672946 131.05029297 176.10058594 C132.04271326 254.14647776 119.49508449 333.01982589 100.75 408.625 C100.43289063 409.90503906 100.11578125 411.18507813 99.7890625 412.50390625 C94.22822783 434.39677217 94.22822783 434.39677217 90.375 438.25 C85.77343762 440.63599531 82.07842685 440.99233628 77 440 C71.69143198 436.85819444 68.31566731 431.81836028 64.49609375 427.0390625 C61.44421484 423.32331635 58.2203626 419.80117638 54.95092773 416.27783203 C52.37224942 413.49828252 49.84240958 410.6911445 47.375 407.8125 C44.22933516 404.17767676 40.85540298 400.81494319 37.40625 397.46875 C35.4239358 395.43494712 33.57797043 393.36803015 31.73046875 391.21484375 C27.98854962 386.90575386 23.97254352 382.964738 19.8125 379.0625 C19.11447266 378.39154297 18.41644531 377.72058594 17.69726562 377.02929688 C17.01986328 376.39185547 16.34246094 375.75441406 15.64453125 375.09765625 C15.03971924 374.52539307 14.43490723 373.95312988 13.81176758 373.36352539 C10.35365754 370.76097256 7.28113281 370.89826321 3.09765625 371.3046875 C2.13738525 371.39314941 1.17711426 371.48161133 0.18774414 371.57275391 C-0.84358643 371.67249512 -1.87491699 371.77223633 -2.9375 371.875 C-62.03741445 377.09808936 -145.96287151 384.1334167 -195 345 C-195.78721436 344.3810083 -195.78721436 344.3810083 -196.59033203 343.74951172 C-204.42686891 337.55066614 -211.01349309 331.06466316 -217 323 C-217.60199219 322.21238281 -218.20398437 321.42476563 -218.82421875 320.61328125 C-225.96775784 310.90127867 -231.45161908 300.40172166 -235.3125 289 C-235.65776733 287.98873047 -235.65776733 287.98873047 -236.01000977 286.95703125 C-239.89280779 274.81456644 -241.50069859 262.27339084 -242.625 249.625 C-242.74617188 248.3565625 -242.86734375 247.088125 -242.9921875 245.78125 C-243.35695746 241.85600802 -243.68729266 237.92972132 -244 234 C-244.09861328 232.77200684 -244.19722656 231.54401367 -244.29882812 230.27880859 C-245.29209533 215.9961264 -245.24292463 201.68609503 -245.25 187.375 C-245.25073643 186.69267555 -245.25147285 186.0103511 -245.2522316 185.30735016 C-245.27260609 162.09549094 -244.5673937 139.08514833 -242 116 C-241.88785156 114.93894043 -241.77570313 113.87788086 -241.66015625 112.78466797 C-238.90621991 87.69749789 -230.40487192 64.43261673 -214 45 C-213.16984375 44.00742188 -212.3396875 43.01484375 -211.484375 41.9921875 C-186.27656244 12.74813512 -152.0953479 3.37461099 -115 0 C-113.27958496 -0.15879639 -113.27958496 -0.15879639 -111.52441406 -0.32080078 C-74.63552955 -3.55280385 -36.86902113 -3.4030552 0 0 Z " fill="#FC7304" transform="translate(1315,72)"/>
<path d="M0 0 C37.00475576 21.71665194 59.52636148 65.13124564 72.8125 104.375 C73.21082031 105.49648437 73.60914063 106.61796875 74.01953125 107.7734375 C76.92939549 116.42674163 78.24086383 125.25548071 79.48706055 134.26953125 C79.71899014 135.77002696 80.0011596 137.26311619 80.31665039 138.74829102 C82.27953946 149.14648085 82.0253496 160.11496379 82.05273438 170.6706543 C82.06250648 172.93900348 82.09370518 175.20646823 82.125 177.47460938 C82.25381948 195.24747212 78.6277212 213.26573931 65.8125 226.375 C53.50157478 237.31511556 37.19182881 237.3018205 21.63330078 236.61328125 C9.42969299 235.58240699 -1.00743222 228.43030839 -11 221.87890625 C-36.93324458 204.99097084 -66.05262358 204.48140086 -96.2019043 207.15893555 C-100.86402097 207.49632808 -105.51637205 207.4592488 -110.1875 207.375 C-104.90154394 218.26196911 -99.15676169 228.84933432 -93.1875 239.375 C-92.84654297 239.97683105 -92.50558594 240.57866211 -92.15429688 241.19873047 C-88.8094138 247.07974922 -85.34236503 252.80410973 -81.44921875 258.33984375 C-78.01600015 263.87763598 -77.38833053 268.98164425 -78.1875 275.375 C-79.96779722 280.71589167 -83.32380663 283.68444622 -88.1875 286.375 C-94.96856705 288.63535568 -102.13116978 288.30069323 -108.5625 285.1875 C-124.09245683 276.782111 -131.71570231 258.28397961 -140.21020508 243.54296875 C-144.44175524 236.16649842 -144.44175524 236.16649842 -149.19921875 229.125 C-151.1875 226.375 -151.1875 226.375 -151.1875 224.375 C-151.87972656 224.5915625 -152.57195312 224.808125 -153.28515625 225.03125 C-164.93926025 228.34783296 -178.49959817 229.59098957 -189.70703125 224.15234375 C-200.3924649 218.1447911 -207.41062151 210.11931906 -210.83203125 198.11328125 C-212.22486371 187.38387952 -213.03701722 174.85085344 -207.1875 165.375 C-206.76339844 164.6634375 -206.33929687 163.951875 -205.90234375 163.21875 C-200.29887078 154.85256194 -191.51913151 150.81154653 -182.5 147 C-161.47395691 137.78135121 -144.56231845 125.30670517 -128.1875 109.375 C-127.39472656 108.6221875 -126.60195312 107.869375 -125.78515625 107.09375 C-115.21572391 96.88012033 -106.93549145 84.75314776 -98.72167969 72.63671875 C-97.47628764 70.80073658 -96.21339545 68.97663389 -94.9453125 67.15625 C-90.51972439 60.31134039 -88.5971932 53.23185057 -86.51660156 45.44140625 C-81.14103171 25.73801035 -70.8395456 6.80947999 -52.92578125 -3.98828125 C-51.02883956 -4.98191738 -49.1840538 -5.8527858 -47.1875 -6.625 C-46.29417969 -6.97820312 -45.40085937 -7.33140625 -44.48046875 -7.6953125 C-29.32897343 -11.97295887 -13.35147506 -7.39228961 0 0 Z " fill="#FEFDFC" transform="translate(1319.1875,121.625)"/>
<path d="M0 0 C7.60857395 4.22018973 14.06736257 9.98462858 20.4921875 15.78515625 C21.30308838 16.50203613 21.30308838 16.50203613 22.13037109 17.23339844 C32.36753073 26.37756809 39.44997019 37.0761119 46.4921875 48.78515625 C46.87181641 49.4100293 47.25144531 50.03490234 47.64257812 50.67871094 C50.04116658 54.65266294 52.28393076 58.70375542 54.4921875 62.78515625 C54.94980469 63.61885742 55.40742187 64.45255859 55.87890625 65.31152344 C62.87729946 78.10742876 69.24447304 90.80404262 73.4921875 104.78515625 C73.74613281 105.60177734 74.00007813 106.41839844 74.26171875 107.25976562 C81.31539572 130.79010856 82.23115697 158.64817638 71.1171875 181.09765625 C66.04008379 189.06019468 57.20203944 194.77777441 48.1171875 197.09765625 C35.43032603 199.36631377 25.85395827 196.86785252 15.1171875 189.84765625 C2.87792223 181.20090259 -6.65979385 169.75029484 -15.5078125 157.78515625 C-16.24644531 156.79515625 -16.98507812 155.80515625 -17.74609375 154.78515625 C-22.5078125 148.21990074 -22.5078125 148.21990074 -22.5078125 144.78515625 C-21.10595703 143.54589844 -21.10595703 143.54589844 -19.140625 142.33203125 C-18.42414795 141.88110107 -17.7076709 141.4301709 -16.96948242 140.96557617 C-15.81283081 140.25751831 -15.81283081 140.25751831 -14.6328125 139.53515625 C-13.06834971 138.54792124 -11.50454487 137.5596428 -9.94140625 136.5703125 C-9.17940918 136.09223145 -8.41741211 135.61415039 -7.63232422 135.12158203 C1.86572027 129.37807551 1.86572027 129.37807551 8.4921875 120.78515625 C8.9046875 120.04265625 9.3171875 119.30015625 9.7421875 118.53515625 C11.99960365 110.2579637 10.48457663 102.28020144 6.4921875 94.78515625 C2.35394408 89.13138915 -1.80260188 84.23483507 -8.5078125 81.78515625 C-17.52155696 80.41830897 -26.75925494 83.31053051 -35.5078125 85.28515625 C-37.77338503 85.78695964 -40.03957289 86.28584675 -42.30615234 86.78308105 C-43.70694622 87.0913932 -45.10704631 87.40287866 -46.50634766 87.71789551 C-51.29076805 88.78515625 -51.29076805 88.78515625 -53.5078125 88.78515625 C-53.99534616 86.82888912 -54.47232683 84.86999162 -54.9453125 82.91015625 C-55.21214844 81.81960937 -55.47898437 80.7290625 -55.75390625 79.60546875 C-60.25040719 56.82009093 -60.30023793 30.42626009 -48.03515625 10.046875 C-36.16480807 -7.53095517 -18.35884008 -8.8934568 0 0 Z " fill="#FF7D13" transform="translate(1308.5078125,138.21484375)"/>
<path d="M0 0 C1.56561979 1.45378981 3.11426009 2.92676009 4.625 4.4375 C5.14707031 4.05078125 5.66914062 3.6640625 6.20703125 3.265625 C16.43810293 -3.97317177 26.01382135 -6.99293462 38.625 -5.5625 C45.43992402 -3.94939299 49.864384 -1.48831916 53.625 4.4375 C57.59856043 12.51874948 57.77631969 21.04355256 57.73852539 29.8828125 C57.73867142 30.79106277 57.73881744 31.69931305 57.7389679 32.63508606 C57.73827612 35.61091575 57.73051838 38.58668136 57.72265625 41.5625 C57.72078946 43.63614874 57.71936679 45.70979792 57.71836853 47.78344727 C57.71456393 53.22167189 57.70475133 58.65986949 57.69366455 64.0980835 C57.68340608 69.65522903 57.67886143 75.21237896 57.67382812 80.76953125 C57.66312711 91.6588679 57.64554708 102.54817747 57.625 113.4375 C46.735 113.4375 35.845 113.4375 24.625 113.4375 C24.6156543 110.85325195 24.60630859 108.26900391 24.59667969 105.60644531 C24.56292832 97.07272679 24.50738978 88.53925057 24.44109726 80.00572586 C24.40157037 74.8312782 24.36940748 69.65700204 24.35400391 64.48242188 C24.33887164 59.48960813 24.30448725 54.49726574 24.25669098 49.50466156 C24.24184173 47.59890589 24.23395696 45.69308293 24.23311615 43.78726959 C24.23075537 41.11971144 24.20374846 38.45346535 24.17089844 35.78613281 C24.1759288 34.9963504 24.18095917 34.20656799 24.18614197 33.39285278 C24.11897833 29.8730696 23.88701831 27.80260604 21.80963135 24.90789795 C19.57937935 23.09591202 19.57937935 23.09591202 16.125 23.5625 C12.43970523 24.349372 12.43970523 24.349372 8.625 26.4375 C8.295 55.1475 7.965 83.8575 7.625 113.4375 C-3.265 113.4375 -14.155 113.4375 -25.375 113.4375 C-25.705 84.0675 -26.035 54.6975 -26.375 24.4375 C-33.8222136 22.84121521 -33.8222136 22.84121521 -42.375 26.4375 C-42.375 55.1475 -42.375 83.8575 -42.375 113.4375 C-53.265 113.4375 -64.155 113.4375 -75.375 113.4375 C-75.375 74.8275 -75.375 36.2175 -75.375 -3.5625 C-66.135 -3.5625 -56.895 -3.5625 -47.375 -3.5625 C-45.375 1.4375 -45.375 1.4375 -45.375 4.4375 C-44.529375 3.88320313 -43.68375 3.32890625 -42.8125 2.7578125 C-29.84995956 -5.59276024 -13.47888143 -10.92532836 0 0 Z " fill="#FE5901" transform="translate(974.375,317.5625)"/>
<path d="M0 0 C7.95613237 6.63011031 10.52947185 14.06501617 12 24 C12.09657264 26.05914613 12.14775232 28.12076285 12.16113281 30.18212891 C12.17074036 31.38423004 12.1803479 32.58633118 12.19024658 33.82485962 C12.19449646 35.11242157 12.19874634 36.39998352 12.203125 37.7265625 C12.20736607 38.72187044 12.20736607 38.72187044 12.21169281 39.73728561 C12.22663798 43.25243266 12.23589554 46.7675392 12.24023438 50.28271484 C12.24569637 53.87994657 12.26968921 57.47679548 12.29820633 61.07390785 C12.31700607 63.86922216 12.32204752 66.66444766 12.32357025 69.45981979 C12.32799819 71.42041184 12.34656068 73.380956 12.36553955 75.34146118 C12.33357888 88.3448439 10.20362983 100.27044846 1 110 C-1.36344452 111.57562968 -3.459113 112.80848185 -6 114 C-6.61230469 114.30164063 -7.22460938 114.60328125 -7.85546875 114.9140625 C-13.01436659 117.04946702 -17.99114835 117.28130197 -23.5 117.3125 C-24.54969971 117.32071777 -24.54969971 117.32071777 -25.62060547 117.32910156 C-31.16577415 117.25425404 -35.36957814 116.25120486 -41 115 C-41.33 130.51 -41.66 146.02 -42 162 C-48.2184375 162.99 -48.2184375 162.99 -54.5625 164 C-56.50298218 164.31324219 -56.50298218 164.31324219 -58.48266602 164.6328125 C-59.52092529 164.79523438 -60.55918457 164.95765625 -61.62890625 165.125 C-62.68150635 165.29257812 -63.73410645 165.46015625 -64.81860352 165.6328125 C-68 166 -68 166 -75 166 C-75 110.56 -75 55.12 -75 -2 C-66.42 -2 -57.84 -2 -49 -2 C-47.68 0.31 -46.36 2.62 -45 5 C-44.45472656 4.60167969 -43.90945312 4.20335937 -43.34765625 3.79296875 C-30.92763681 -4.93289106 -13.77077611 -8.31611804 0 0 Z M-42 29 C-42.29305711 31.54903294 -42.29305711 31.54903294 -42.22705078 34.55126953 C-42.22689972 35.71232208 -42.22674866 36.87337463 -42.22659302 38.0696106 C-42.21627045 39.32796722 -42.20594788 40.58632385 -42.1953125 41.8828125 C-42.1924826 43.16735321 -42.18965271 44.45189392 -42.18673706 45.77536011 C-42.17909809 49.19162767 -42.15944752 52.60772537 -42.1373291 56.02392578 C-42.11687624 59.50941673 -42.10773655 62.9949351 -42.09765625 66.48046875 C-42.07620175 73.32038231 -42.04206271 80.160183 -42 87 C-38.01900095 88.3968117 -35.09540066 89.26893832 -30.875 88.8125 C-30.04742187 88.73644531 -29.21984375 88.66039062 -28.3671875 88.58203125 C-25.59197113 87.89967607 -24.08453547 86.94093414 -22 85 C-21.00210994 82.00632982 -20.862015 79.98611991 -20.83886719 76.85766602 C-20.82925964 75.80970352 -20.8196521 74.76174103 -20.80975342 73.68202209 C-20.80550354 72.55074387 -20.80125366 71.41946564 -20.796875 70.25390625 C-20.78832489 68.50991798 -20.78832489 68.50991798 -20.77960205 66.73069763 C-20.7701515 64.27026276 -20.76361785 61.80981524 -20.75976562 59.34936523 C-20.75004769 55.58099403 -20.71901899 51.81316532 -20.6875 48.04492188 C-20.6809712 45.65625324 -20.67572025 43.26758071 -20.671875 40.87890625 C-20.6595282 39.74965225 -20.6471814 38.62039825 -20.63446045 37.45692444 C-20.63746155 36.40580978 -20.64046265 35.35469513 -20.64355469 34.27172852 C-20.63990906 33.34812027 -20.63626343 32.42451202 -20.63250732 31.47291565 C-21.07670623 28.48383182 -21.8852726 27.14062595 -24 25 C-30.66615935 23.30521372 -36.8754685 23.8754685 -42 29 Z " fill="#03016F" transform="translate(192,176)"/>
<path d="M0 0 C8.15995693 6.67756475 10.53978705 14.38177742 11.78065491 24.52482605 C12.22964949 29.59145274 12.18452754 34.6746673 12.203125 39.7578125 C12.20882507 40.97846405 12.21452515 42.1991156 12.22039795 43.45675659 C12.22981555 46.03366234 12.23636899 48.61057995 12.24023438 51.1875 C12.24991658 55.09136448 12.28096258 58.99469683 12.3125 62.8984375 C12.31903361 65.41405941 12.32428268 67.92968504 12.328125 70.4453125 C12.3404718 71.59476349 12.3528186 72.74421448 12.36553955 73.92849731 C12.33334497 85.88230014 10.98083227 98.55862327 3 108 C0.19932991 110.48421019 -2.66933587 112.30388028 -6 114 C-6.98033203 114.50853516 -6.98033203 114.50853516 -7.98046875 115.02734375 C-13.04178003 117.15172392 -18.08867588 117.27132688 -23.5 117.3125 C-24.19996094 117.31813965 -24.89992188 117.3237793 -25.62109375 117.32958984 C-31.16607586 117.25343669 -35.36958157 116.25120409 -41 115 C-41.33 130.51 -41.66 146.02 -42 162 C-48.2184375 162.99 -48.2184375 162.99 -54.5625 164 C-56.50298218 164.31324219 -56.50298218 164.31324219 -58.48266602 164.6328125 C-59.52092529 164.79523438 -60.55918457 164.95765625 -61.62890625 165.125 C-62.68150635 165.29257812 -63.73410645 165.46015625 -64.81860352 165.6328125 C-68 166 -68 166 -75 166 C-75 110.56 -75 55.12 -75 -2 C-66.42 -2 -57.84 -2 -49 -2 C-48.01 0.31 -47.02 2.62 -46 5 C-45.38253906 4.60167969 -44.76507813 4.20335937 -44.12890625 3.79296875 C-31.03317533 -4.3993378 -14.24078858 -8.57683858 0 0 Z M-42 29 C-42.29305711 31.54903294 -42.29305711 31.54903294 -42.22705078 34.55126953 C-42.22689972 35.71232208 -42.22674866 36.87337463 -42.22659302 38.0696106 C-42.21627045 39.32796722 -42.20594788 40.58632385 -42.1953125 41.8828125 C-42.1924826 43.16735321 -42.18965271 44.45189392 -42.18673706 45.77536011 C-42.17909809 49.19162767 -42.15944752 52.60772537 -42.1373291 56.02392578 C-42.11687624 59.50941673 -42.10773655 62.9949351 -42.09765625 66.48046875 C-42.07620175 73.32038231 -42.04206271 80.160183 -42 87 C-36.23840961 89.01710233 -31.96217858 89.44196772 -26 88 C-23.47376318 86.0899185 -22.39313226 84.78626453 -21 82 C-20.89438193 80.32619917 -20.85124635 78.64827553 -20.83886719 76.97119141 C-20.82925964 75.92315338 -20.8196521 74.87511536 -20.80975342 73.7953186 C-20.80550354 72.65887909 -20.80125366 71.52243958 -20.796875 70.3515625 C-20.78832489 68.60545181 -20.78832489 68.60545181 -20.77960205 66.82406616 C-20.77014278 64.35765495 -20.7636144 61.89123104 -20.75976562 59.42480469 C-20.75005799 55.64756271 -20.71904166 51.87086422 -20.6875 48.09375 C-20.68097038 45.70052407 -20.67571975 43.30729425 -20.671875 40.9140625 C-20.6595282 39.78167145 -20.6471814 38.6492804 -20.63446045 37.48257446 C-20.63746155 36.42823212 -20.64046265 35.37388977 -20.64355469 34.28759766 C-20.63990906 33.36097321 -20.63626343 32.43434875 -20.63250732 31.47964478 C-21.0761448 28.48621545 -21.88171706 27.1429951 -24 25 C-30.66615935 23.30521372 -36.8754685 23.8754685 -42 29 Z " fill="#03016F" transform="translate(294,176)"/>
<path d="M0 0 C13.2 0 26.4 0 40 0 C41.11375 5.07246094 42.2275 10.14492187 43.375 15.37109375 C43.76043976 17.12646454 44.14587952 18.88183533 44.54299927 20.69039917 C46.50860474 29.64251567 48.47339252 38.59481088 50.43701172 47.54736328 C51.26784716 51.33497333 52.09874726 55.12256919 52.9296875 58.91015625 C53.13894741 59.86404236 53.34820732 60.81792847 53.56380844 61.80072021 C56.23536317 73.97729365 58.91412778 86.15224627 61.60235596 98.32514954 C62.91336198 104.26180797 64.22168582 110.19905646 65.52928543 116.13646603 C66.58641015 120.9354207 67.64715441 125.73355726 68.71045113 130.53114796 C69.36762419 133.50047175 70.02132847 136.47055101 70.67403793 139.44085884 C70.97614945 140.81227533 71.27971407 142.18337265 71.58484268 143.55412102 C71.99938164 145.41722582 72.40828844 147.28158114 72.81689453 149.14599609 C73.04684113 150.18662201 73.27678772 151.22724792 73.51370239 152.29940796 C74 155 74 155 74 159 C62.78 159 51.56 159 40 159 C38.69907593 154.44676575 37.64486869 150.44865525 36.9296875 145.84765625 C36.77226074 144.85000244 36.61483398 143.85234863 36.45263672 142.82446289 C36.2620166 141.58301514 36.07139648 140.34156738 35.875 139.0625 C35.25625 135.081875 34.6375 131.10125 34 127 C24.43 127 14.86 127 5 127 C4.67 130.63 4.34 134.26 4 138 C3.71316868 139.89535925 3.39867835 141.78733867 3.02734375 143.66796875 C2.86741943 144.49321045 2.70749512 145.31845215 2.54272461 146.16870117 C2.34300049 147.16490479 2.14327637 148.1611084 1.9375 149.1875 C0.9784375 154.0446875 0.9784375 154.0446875 0 159 C-11.22 159 -22.44 159 -34 159 C-32.87500567 147.75005675 -32.87500567 147.75005675 -31.93305969 143.46817017 C-31.72158798 142.49360367 -31.51011627 141.51903717 -31.29223633 140.51493835 C-31.06213867 139.48214249 -30.83204102 138.44934662 -30.5949707 137.38525391 C-30.3508696 136.26809494 -30.10676849 135.15093597 -29.85527039 133.99992371 C-29.05076927 130.32427827 -28.23829163 126.650445 -27.42578125 122.9765625 C-26.8581429 120.3900344 -26.29096765 117.80340909 -25.72441101 115.21664429 C-24.38319358 109.09758733 -23.0363281 102.97978867 -21.68728465 96.86245286 C-19.87843308 88.65890345 -18.0773316 80.45365416 -16.27618635 72.24840999 C-15.83553161 70.24098977 -15.39484954 68.23357556 -14.95414734 66.22616577 C-14.81045548 65.5716208 -14.66676362 64.91707583 -14.51871747 64.24269617 C-13.55369553 59.84781072 -12.58643389 55.45342233 -11.61824036 51.05923462 C-11.09606896 48.6874592 -10.57398801 46.31566387 -10.05200195 43.94384766 C-9.80101903 42.80421885 -9.55003611 41.66459003 -9.29144764 40.49042702 C-7.94408988 34.35628363 -6.61610065 28.21847163 -5.31259155 22.07489014 C-5.17428246 21.42417097 -5.03597337 20.7734518 -4.89347309 20.10301387 C-4.22657134 16.96441623 -3.56266647 13.8252414 -2.90365314 10.68497658 C-2.66842536 9.57498991 -2.43319757 8.46500324 -2.19084167 7.32138062 C-1.98441638 6.33965567 -1.77799109 5.35793072 -1.56531048 4.34645653 C-1 2 -1 2 0 0 Z M19 43 C17.85378447 49.72491746 16.7152629 56.45110517 15.58203125 63.17822266 C15.19577396 65.46563053 14.80776907 67.75274402 14.41796875 70.03955078 C13.85735574 73.33029194 13.30307636 76.62204735 12.75 79.9140625 C12.57500977 80.93303619 12.40001953 81.95200989 12.21972656 83.00186157 C12.05956055 83.96240448 11.89939453 84.92294739 11.734375 85.91259766 C11.52119629 87.17168442 11.52119629 87.17168442 11.30371094 88.45620728 C10.96587265 91.28584059 11 94.1502703 11 97 C16.94 97 22.88 97 29 97 C28.31207959 86.99217151 26.68857033 77.16678677 25.04370117 67.28076172 C24.5581586 64.34878419 24.08654718 61.41476316 23.61523438 58.48046875 C23.30813712 56.61965194 23.00022469 54.75896944 22.69140625 52.8984375 C22.55174942 52.01940765 22.41209259 51.14037781 22.26820374 50.23471069 C21.9131037 48.14385511 21.46554679 46.06906726 21 44 C20.34 43.67 19.68 43.34 19 43 Z " fill="#03016F" transform="translate(34,132)"/>
<path d="M0 0 C0 55.77 0 111.54 0 169 C-8.58 169 -17.16 169 -26 169 C-26.99 166.69 -27.98 164.38 -29 162 C-29.61746094 162.39832031 -30.23492188 162.79664063 -30.87109375 163.20703125 C-41.61169898 169.92604 -50.16285373 172.22194593 -63 171 C-68.9061281 169.60906404 -74.88057862 167.60405919 -79 163 C-85.46317156 152.34808676 -86.31486153 142.6443723 -86.30078125 130.421875 C-86.30467756 129.00473914 -86.30901412 127.58760444 -86.31376648 126.17047119 C-86.32119779 123.2084982 -86.3209609 120.24664445 -86.31567383 117.28466797 C-86.30989644 113.52156047 -86.32678293 109.75894794 -86.3500185 105.99592209 C-86.36488057 103.07020294 -86.36561056 100.14459941 -86.36250877 97.21884918 C-86.36301618 95.83321405 -86.36814261 94.44757142 -86.37832069 93.06197357 C-86.45869478 80.58737267 -85.51938536 68.73644042 -77 59 C-69.35054421 51.4985982 -60.8206984 49.76685625 -50.4375 49.6875 C-49.74148682 49.68186035 -49.04547363 49.6762207 -48.32836914 49.67041016 C-42.80257335 49.74686037 -38.61335734 50.75258726 -33 52 C-32.67 36.49 -32.34 20.98 -32 5 C-21.86318804 2.74737512 -21.86318804 2.74737512 -17.8515625 2.1484375 C-16.56185547 1.95507812 -16.56185547 1.95507812 -15.24609375 1.7578125 C-14.38113281 1.63148437 -13.51617188 1.50515625 -12.625 1.375 C-11.73683594 1.2409375 -10.84867188 1.106875 -9.93359375 0.96875 C-6.57773883 0.47121024 -3.39784624 0 0 0 Z M-51.61636353 81.74389648 C-53.30169363 84.49192983 -53.38002277 86.13924793 -53.38818359 89.34765625 C-53.39764008 90.41556396 -53.40709656 91.48347168 -53.4168396 92.58374023 C-53.41076691 93.73173096 -53.40469421 94.87972168 -53.3984375 96.0625 C-53.40130768 97.24593994 -53.40417786 98.42937988 -53.40713501 99.64868164 C-53.40917607 102.15023273 -53.40364337 104.65179977 -53.39111328 107.15332031 C-53.37506121 110.98538859 -53.39096162 114.81640208 -53.41015625 118.6484375 C-53.40817383 121.07812733 -53.40433017 123.50781651 -53.3984375 125.9375 C-53.40451019 127.08549072 -53.41058289 128.23348145 -53.4168396 129.41625977 C-53.40738312 130.48416748 -53.39792664 131.5520752 -53.38818359 132.65234375 C-53.38579681 133.59070068 -53.38341003 134.52905762 -53.38095093 135.49584961 C-52.92624546 138.48481954 -52.09542215 139.842767 -50 142 C-44.25377692 143.69006561 -40.18658421 142.55946656 -35 140 C-34.01 139.34 -33.02 138.68 -32 138 C-31.56085067 135.45647152 -31.56085067 135.45647152 -31.65942383 132.44873047 C-31.65965042 131.28767792 -31.65987701 130.12662537 -31.66011047 128.9303894 C-31.67559433 127.67203278 -31.69107819 126.41367615 -31.70703125 125.1171875 C-31.71127609 123.83264679 -31.71552094 122.54810608 -31.71989441 121.22463989 C-31.7313532 117.80827359 -31.76082857 114.39228944 -31.79400635 110.97607422 C-31.82468538 107.49061249 -31.83839506 104.00508906 -31.85351562 100.51953125 C-31.88569779 93.67953043 -31.93690624 86.83978356 -32 80 C-38.68319752 77.63127177 -46.23803022 75.94120643 -51.61636353 81.74389648 Z " fill="#03016F" transform="translate(928,122)"/>
<path d="M0 0 C0.82814209 0.00563965 1.65628418 0.0112793 2.50952148 0.01708984 C14.39296633 0.25093844 24.75869417 3.00874959 33.72265625 11.1640625 C45.83474762 24.07334035 45.02235761 41.34027808 44.94824219 57.95068359 C44.93751996 60.80718204 44.94819192 63.6630518 44.9609375 66.51953125 C44.98827135 97.77909531 44.98827135 97.77909531 34.609375 109.69921875 C24.92196696 118.86160992 13.41072881 121.70749715 0.375 121.625 C-0.55417236 121.61936035 -1.48334473 121.6137207 -2.44067383 121.60791016 C-15.60614601 121.37485211 -26.35824965 117.76465055 -35.6875 108.125 C-43.97182121 98.18381455 -44.45984698 86.11684624 -44.515625 73.7421875 C-44.52132507 72.7434964 -44.52702515 71.7448053 -44.53289795 70.71585083 C-44.54230311 68.60973149 -44.54886399 66.50359772 -44.55273438 64.39746094 C-44.56240773 61.21782955 -44.59346146 58.03885426 -44.625 54.859375 C-44.78868329 23.53076159 -44.78868329 23.53076159 -34.3046875 12.12890625 C-24.57886912 2.89446197 -13.16950236 -0.09477384 0 0 Z M-8.3125 31.3125 C-11.11232787 34.28079209 -11.69375553 36.31595609 -11.73242188 40.35302734 C-11.74833374 41.35441742 -11.76424561 42.3558075 -11.78063965 43.38754272 C-11.78084106 44.463638 -11.78104248 45.53973328 -11.78125 46.6484375 C-11.78886353 47.76054596 -11.79647705 48.87265442 -11.80432129 50.01846313 C-11.81512389 52.37035884 -11.81797476 54.72230253 -11.81347656 57.07421875 C-11.81250541 60.66748403 -11.85410434 64.25860617 -11.8984375 67.8515625 C-11.90364541 70.13801639 -11.90633268 72.42447769 -11.90625 74.7109375 C-11.92264526 75.78298431 -11.93904053 76.85503113 -11.95593262 77.95956421 C-11.92649982 84.4366066 -11.92649982 84.4366066 -8.91577148 89.98071289 C-5.59598765 92.95429025 -3.82488853 93.28740101 0.47265625 93.48046875 C3.8418204 93.22495895 5.95109479 92.26707515 8.6875 90.3125 C12.73658691 85.55057116 12.12085081 80.20481757 12.0859375 74.28125 C12.08880768 73.2125769 12.09167786 72.14390381 12.09463501 71.04284668 C12.09667348 68.78685983 12.09115886 66.53085523 12.07861328 64.27490234 C12.06255721 60.82479269 12.07847004 57.37585453 12.09765625 53.92578125 C12.09567378 51.73176825 12.09183003 49.53775598 12.0859375 47.34375 C12.09201019 46.31342651 12.09808289 45.28310303 12.1043396 44.22155762 C12.11262547 37.23405225 12.11262547 37.23405225 8.6875 31.3125 C1.84206734 27.7675438 -1.45251225 27.88250612 -8.3125 31.3125 Z " fill="#FE5901" transform="translate(840.3125,311.6875)"/>
<path d="M0 0 C8.6183482 6.31380821 13.35932075 14.11367341 15.15625 24.6484375 C16.42128961 33.34833759 16.36240186 42.04939885 16.32324219 50.82568359 C16.31251996 53.68218204 16.32319192 56.5380518 16.3359375 59.39453125 C16.36327135 90.65409531 16.36327135 90.65409531 5.984375 102.57421875 C-3.64470856 111.68144639 -15.26736739 114.59342904 -28.25 114.5 C-29.07814209 114.49436035 -29.90628418 114.4887207 -30.75952148 114.48291016 C-42.60609316 114.24978717 -53.09423713 111.53163813 -61.97265625 103.30078125 C-74.24083443 90.04281375 -73.26687475 73.89491453 -73.19824219 56.86083984 C-73.18752468 53.69479214 -73.19818114 50.5293117 -73.2109375 47.36328125 C-73.23540638 16.46805319 -73.23540638 16.46805319 -62.859375 4.86328125 C-46.69891132 -10.42135311 -18.59538977 -11.46459568 0 0 Z M-38.05664062 25.05273438 C-40.89948286 29.79080477 -40.50966571 34.22870969 -40.46875 39.65625 C-40.4725769 40.76931519 -40.47640381 41.88238037 -40.48034668 43.0291748 C-40.48306514 45.37932237 -40.4757087 47.72950022 -40.45898438 50.07958984 C-40.43757538 53.67484049 -40.45878997 57.26809269 -40.484375 60.86328125 C-40.48173171 63.14844191 -40.47660672 65.43360132 -40.46875 67.71875 C-40.47684692 68.79282104 -40.48494385 69.86689209 -40.49328613 70.97351074 C-40.43399488 76.95583733 -40.43399488 76.95583733 -38.03637695 82.33984375 C-34.64889446 85.32186859 -31.39049635 86.01478682 -26.9375 86.1875 C-23.30251593 85.51073713 -20.72067076 84.09314851 -18.26708984 81.25585938 C-16.25392955 76.6099911 -16.50952822 72.16718303 -16.5390625 67.15625 C-16.53619232 66.0875769 -16.53332214 65.01890381 -16.53036499 63.91784668 C-16.52832652 61.66185983 -16.53384114 59.40585523 -16.54638672 57.14990234 C-16.56244279 53.69979269 -16.54652996 50.25085453 -16.52734375 46.80078125 C-16.52932622 44.60676825 -16.53316997 42.41275598 -16.5390625 40.21875 C-16.53298981 39.18842651 -16.52691711 38.15810303 -16.5206604 37.09655762 C-16.53000742 30.12300591 -16.53000742 30.12300591 -19.9375 24.1875 C-26.40240277 20.11180043 -32.16872515 19.87028343 -38.05664062 25.05273438 Z " fill="#03016F" transform="translate(1015.9375,178.8125)"/>
<path d="M0 0 C5.54204541 4.67994946 8.58323282 9.90914057 10 17 C10.26673315 20.29714721 10.25345083 23.57618405 10.22705078 26.88256836 C10.22734283 27.84919403 10.22763489 28.8158197 10.22793579 29.81173706 C10.22654906 32.98786583 10.21101876 36.16375626 10.1953125 39.33984375 C10.19158004 41.54944226 10.18873417 43.75904243 10.18673706 45.96864319 C10.179119 51.77023935 10.15948616 57.57173459 10.1373291 63.37329102 C10.11683132 69.298977 10.10772694 75.22467937 10.09765625 81.15039062 C10.07623856 92.76697845 10.04107127 104.38346502 10 116 C-0.89 116 -11.78 116 -23 116 C-23.01458252 113.34469238 -23.02916504 110.68938477 -23.04418945 107.95361328 C-23.09444768 99.19638994 -23.1610268 90.43934605 -23.23571491 81.68229866 C-23.28050941 76.37105948 -23.31974528 71.05989862 -23.34643555 65.74853516 C-23.37237823 60.62611882 -23.4127158 55.50400245 -23.46318626 50.38177109 C-23.47991637 48.42411902 -23.49139222 46.46641499 -23.49761391 44.50870132 C-23.50718853 41.77387022 -23.53516678 39.03981727 -23.56762695 36.30517578 C-23.56619186 35.48950134 -23.56475677 34.6738269 -23.5632782 33.83343506 C-23.56986422 31.35393772 -23.56986422 31.35393772 -24 28 C-27.26044117 25.82637255 -27.72186831 25.776215 -31.375 26.25 C-32.12523437 26.33765625 -32.87546875 26.4253125 -33.6484375 26.515625 C-36.50753803 27.0324576 -36.50753803 27.0324576 -41 29 C-41 57.71 -41 86.42 -41 116 C-51.56 116 -62.12 116 -73 116 C-73 77.39 -73 38.78 -73 -1 C-64.09 -1 -55.18 -1 -46 -1 C-44 4 -44 4 -44 7 C-42.60587891 6.16855469 -42.60587891 6.16855469 -41.18359375 5.3203125 C-39.93513501 4.58813369 -38.68642348 3.85638579 -37.4375 3.125 C-36.82841797 2.76019531 -36.21933594 2.39539063 -35.59179688 2.01953125 C-25.03378684 -4.12534232 -11.05114277 -5.93487297 0 0 Z " fill="#03016F" transform="translate(818,175)"/>
<path d="M0 0 C8.32407193 7.70954313 10.55418705 19.31241361 11.00375366 30.22406006 C11.12790101 35.48834897 11.08450767 40.75057728 11.0390625 46.015625 C11.03345385 47.94617378 11.02918977 49.87672688 11.02619934 51.80728149 C11.01485037 56.84110708 10.98547111 61.874665 10.9520874 66.90838623 C10.9211697 72.06388734 10.90764804 77.21943252 10.89257812 82.375 C10.86058995 92.45586453 10.80790563 102.53646168 10.74609375 112.6171875 C1.83609375 112.6171875 -7.07390625 112.6171875 -16.25390625 112.6171875 C-17.24390625 110.6371875 -18.23390625 108.6571875 -19.25390625 106.6171875 C-19.89457031 107.02710938 -20.53523438 107.43703125 -21.1953125 107.859375 C-22.06027344 108.39820313 -22.92523438 108.93703125 -23.81640625 109.4921875 C-24.66332031 110.02585937 -25.51023437 110.55953125 -26.3828125 111.109375 C-34.91641726 115.59096879 -44.86267214 115.9546908 -54.203125 114 C-60.50506063 111.81893192 -64.71715657 108.25153074 -68.25390625 102.6171875 C-74.63269528 89.25673609 -75.03094837 73.27097575 -70.4765625 59.21875 C-67.39285733 52.31019163 -62.350429 48.22847993 -55.39453125 45.4609375 C-48.6121318 43.07782565 -42.18269548 43.16770123 -35.06640625 43.3671875 C-33.82826172 43.38523438 -32.59011719 43.40328125 -31.31445312 43.421875 C-28.2934326 43.46853169 -25.27410315 43.53397767 -22.25390625 43.6171875 C-22.36856046 41.38746477 -22.49605391 39.15839997 -22.62890625 36.9296875 C-22.69851563 35.68832031 -22.768125 34.44695312 -22.83984375 33.16796875 C-23.22203192 29.89052489 -23.72531891 27.52471027 -25.25390625 24.6171875 C-33.37546187 20.3533708 -43.13107602 22.7537546 -51.63232422 24.63745117 C-55.56065386 25.47095285 -58.37242627 25.53074671 -62.25390625 24.6171875 C-62.9247032 20.84707673 -63.58983428 17.07598814 -64.25390625 13.3046875 C-64.4446875 12.23283203 -64.63546875 11.16097656 -64.83203125 10.05664062 C-65.0125 9.02861328 -65.19296875 8.00058594 -65.37890625 6.94140625 C-65.54648437 5.99354248 -65.7140625 5.04567871 -65.88671875 4.0690918 C-66.25390625 1.6171875 -66.25390625 1.6171875 -66.25390625 -1.3828125 C-63.56729842 -2.03255455 -60.87971951 -2.67769668 -58.19140625 -3.3203125 C-57.43923828 -3.50271484 -56.68707031 -3.68511719 -55.91210938 -3.87304688 C-39.10900799 -7.8737853 -14.95146861 -10.5064374 0 0 Z M-38.140625 71.00390625 C-40.70284695 74.71688052 -40.59286936 78.23674112 -40.25390625 82.6171875 C-39.41670285 85.26833159 -38.78175481 86.22618857 -36.56640625 87.8671875 C-31.20455199 89.60616726 -27.40868761 88.67910004 -22.25390625 86.6171875 C-22.25390625 81.0071875 -22.25390625 75.3971875 -22.25390625 69.6171875 C-24.50203125 69.5553125 -26.75015625 69.4934375 -29.06640625 69.4296875 C-30.33097656 69.39488281 -31.59554687 69.36007813 -32.8984375 69.32421875 C-36.19034393 69.31866942 -36.19034393 69.31866942 -38.140625 71.00390625 Z " fill="#03016F" transform="translate(389.25390625,178.3828125)"/>
<path d="M0 0 C1.21913086 -0.01836914 1.21913086 -0.01836914 2.46289062 -0.03710938 C12.05538783 -0.06000316 21.60186632 1.52936496 28.94921875 8.09765625 C37.9884751 17.57133158 39.98814337 27.82566004 39.91015625 40.5234375 C39.90914917 41.30372314 39.90814209 42.08400879 39.90710449 42.88793945 C39.90190541 45.77947476 39.88794433 48.67098899 39.875 51.5625 C39.854375 58.03875 39.83375 64.515 39.8125 71.1875 C23.6425 71.1875 7.4725 71.1875 -9.1875 71.1875 C-9.15839929 81.67285473 -9.15839929 81.67285473 -5.1875 90.1875 C2.63970193 95.40563462 13.08574075 93.85038068 21.90234375 92.10791016 C23.78438627 91.70681149 25.66002561 91.27601064 27.53515625 90.84375 C30.43366937 90.26335643 32.87891654 90.13507557 35.8125 90.1875 C36.48522347 93.60300296 37.14961799 97.02007452 37.8125 100.4375 C38.00328125 101.40558594 38.1940625 102.37367188 38.390625 103.37109375 C38.57109375 104.30566406 38.7515625 105.24023438 38.9375 106.203125 C39.10507812 107.06196289 39.27265625 107.92080078 39.4453125 108.80566406 C39.8125 111.1875 39.8125 111.1875 39.8125 115.1875 C36.9810963 116.00727607 34.14767098 116.81844274 31.3125 117.625 C30.52101563 117.85509766 29.72953125 118.08519531 28.9140625 118.32226562 C11.85655419 123.14590527 -9.58110215 124.10319035 -25.5 115.5625 C-33.31270555 110.5005702 -38.68338162 102.86130899 -40.73217773 93.77075195 C-42.50473729 83.74252787 -42.49129867 73.79708149 -42.44824219 63.63989258 C-42.43750913 60.62756277 -42.44819527 57.61582753 -42.4609375 54.60351562 C-42.47437579 38.82557796 -42.42635507 23.83298887 -31.625 11.1875 C-30.820625 10.5275 -30.01625 9.8675 -29.1875 9.1875 C-28.48625 8.506875 -27.785 7.82625 -27.0625 7.125 C-18.86325851 1.59942421 -9.65167874 0.00747613 0 0 Z M-7.1875 29.1875 C-9.72910571 32.71750793 -9.39078063 36.21034618 -9.3125 40.4375 C-9.27125 42.665 -9.23 44.8925 -9.1875 47.1875 C-2.9175 47.1875 3.3525 47.1875 9.8125 47.1875 C9.895 44.815625 9.9775 42.44375 10.0625 40 C10.11712402 38.89362183 10.11712402 38.89362183 10.17285156 37.76489258 C10.23260671 34.19644997 9.88278697 32.2992727 7.97265625 29.26171875 C3.04692578 24.53194862 -1.66077105 26.10528578 -7.1875 29.1875 Z " fill="#03016F" transform="translate(689.1875,171.8125)"/>
<path d="M0 0 C8.2209371 6.6467151 11.66013494 15.12205844 13.38671875 25.3046875 C13.62648023 28.51981639 13.62235938 31.71099494 13.58203125 34.93359375 C13.58001709 35.71085815 13.57800293 36.48812256 13.57592773 37.28894043 C13.56558908 40.14841753 13.53766821 43.00780946 13.51171875 45.8671875 C13.47046875 52.2815625 13.42921875 58.6959375 13.38671875 65.3046875 C-2.78328125 65.3046875 -18.95328125 65.3046875 -35.61328125 65.3046875 C-35.36739729 80.57380582 -35.36739729 80.57380582 -28.61328125 86.3046875 C-19.72961725 89.99565992 -7.94209291 87.04750854 1.109375 84.9609375 C4.00788812 84.38054393 6.45313529 84.25226307 9.38671875 84.3046875 C10.05944222 87.72019046 10.72383674 91.13726202 11.38671875 94.5546875 C11.5775 95.52277344 11.76828125 96.49085938 11.96484375 97.48828125 C12.1453125 98.42285156 12.32578125 99.35742188 12.51171875 100.3203125 C12.67929687 101.17915039 12.846875 102.03798828 13.01953125 102.92285156 C13.38671875 105.3046875 13.38671875 105.3046875 13.38671875 109.3046875 C10.55531505 110.12446357 7.72188973 110.93563024 4.88671875 111.7421875 C4.09523438 111.97228516 3.30375 112.20238281 2.48828125 112.43945312 C-12.98833784 116.81603803 -34.22729036 118.57078745 -48.9296875 111.1328125 C-50.91421306 109.9486757 -52.75944238 108.68207246 -54.61328125 107.3046875 C-55.50015625 106.7065625 -56.38703125 106.1084375 -57.30078125 105.4921875 C-66.06045869 97.20600614 -68.22146893 85.52508054 -68.71414185 73.9311676 C-68.76033188 71.44584217 -68.77800838 68.96231375 -68.78125 66.4765625 C-68.7845784 65.56569885 -68.7879068 64.65483521 -68.79133606 63.71636963 C-68.79636746 61.80033874 -68.79874557 59.88429921 -68.79858398 57.96826172 C-68.80076492 55.07634636 -68.81894624 52.18481659 -68.83789062 49.29296875 C-68.89050598 32.66481661 -68.79763631 16.7593753 -56.80078125 3.8046875 C-42.98255693 -8.88175845 -15.46354177 -10.0316549 0 0 Z M-33.61328125 23.3046875 C-35.76525745 27.2499772 -35.82790015 30.68105177 -35.73828125 35.1171875 C-35.69703125 37.1590625 -35.65578125 39.2009375 -35.61328125 41.3046875 C-29.34328125 41.3046875 -23.07328125 41.3046875 -16.61328125 41.3046875 C-16.53078125 38.9328125 -16.44828125 36.5609375 -16.36328125 34.1171875 C-16.30865723 33.01080933 -16.30865723 33.01080933 -16.25292969 31.88208008 C-16.19317454 28.31363747 -16.54299428 26.4164602 -18.453125 23.37890625 C-23.34896407 18.67783836 -28.14024604 20.14716719 -33.61328125 23.3046875 Z " fill="#03016F" transform="translate(546.61328125,177.6953125)"/>
<path d="M0 0 C0.96373535 0.00128906 1.9274707 0.00257813 2.92041016 0.00390625 C10.50126948 0.10561156 17.00928073 1.17497241 24.3125 3.3125 C23.3225 11.8925 22.3325 20.4725 21.3125 29.3125 C18.3125 30.3125 18.3125 30.3125 15.8125 29.875 C8.34880272 28.67547722 1.39463283 28.97284878 -5.91015625 30.875 C-8.82578977 33.23313876 -9.0716179 36.76691379 -9.6875 40.3125 C-9.95836442 43.48378949 -9.99176003 46.63470554 -9.98828125 49.81640625 C-9.99470894 51.13958107 -9.99470894 51.13958107 -10.00126648 52.48948669 C-10.00697566 54.34251044 -10.00753541 56.19555658 -10.00317383 58.04858398 C-10.00000486 60.87066974 -10.02354661 63.69171464 -10.04882812 66.51367188 C-10.0511007 68.32291536 -10.05180481 70.13216163 -10.05078125 71.94140625 C-10.059991 72.77700577 -10.06920074 73.61260529 -10.07868958 74.473526 C-10.03668225 79.83168418 -9.19630196 83.55432161 -6.6875 88.3125 C-2.20899835 92.64653386 2.71388737 92.46187769 8.6328125 92.41796875 C11.24080666 92.31532175 13.78532282 92.06853857 16.375 91.75 C18.3240625 91.5334375 18.3240625 91.5334375 20.3125 91.3125 C22.08282103 93.08282103 21.79888604 95.68997438 22.06640625 98.09765625 C22.19853516 99.26748047 22.33066406 100.43730469 22.46679688 101.64257812 C22.60150391 102.87427734 22.73621094 104.10597656 22.875 105.375 C23.01357422 106.61056641 23.15214844 107.84613281 23.29492188 109.11914062 C23.63799988 112.18318212 23.97700754 115.24762018 24.3125 118.3125 C8.35089286 122.54624603 -10.9287303 124.52891239 -25.9375 116.1875 C-34.75800483 110.03152267 -39.95352087 102.09306473 -42.27490234 91.67675781 C-43.88313167 82.28570665 -43.99291645 73.03583456 -43.94824219 63.52880859 C-43.93751841 60.81715541 -43.94819532 58.10616447 -43.9609375 55.39453125 C-43.97501475 38.40270888 -43.55035459 22.44706629 -31.18359375 9.51171875 C-22.25755062 1.64730203 -11.49956313 -0.0637426 0 0 Z " fill="#03016F" transform="translate(615.6875,171.6875)"/>
<path d="M0 0 C-0.51856202 9.102128 -1.46232654 18.01282114 -3 27 C-4.27875 26.89300781 -5.5575 26.78601563 -6.875 26.67578125 C-8.58326749 26.55376214 -10.29160498 26.43272039 -12 26.3125 C-12.83917969 26.23966797 -13.67835938 26.16683594 -14.54296875 26.09179688 C-20.51272991 25.69844052 -24.57325051 26.42911533 -30 29 C-35.92535964 35.68992217 -34.18625923 47.38775047 -34.18530273 55.78100586 C-34.18749142 57.92907476 -34.205705 60.07663075 -34.22460938 62.22460938 C-34.6149596 74.85540203 -34.6149596 74.85540203 -29.625 86 C-25.74246273 88.95812363 -22.61552358 89.13886154 -17.8125 89.125 C-16.93207031 89.12757813 -16.05164063 89.13015625 -15.14453125 89.1328125 C-11.06927284 88.96068978 -7.04749162 88.49172515 -3 88 C-2.4944461 91.56173477 -1.99653886 95.12449819 -1.5 98.6875 C-1.35691406 99.69490234 -1.21382812 100.70230469 -1.06640625 101.74023438 C-0.93105469 102.71669922 -0.79570313 103.69316406 -0.65625 104.69921875 C-0.46772461 106.04246216 -0.46772461 106.04246216 -0.27539062 107.4128418 C-0.00383484 109.96397361 0.04847897 112.4366743 0 115 C-7.84644298 117.83484392 -15.35043417 118.32720467 -23.625 118.375 C-24.58994385 118.38853516 -25.5548877 118.40207031 -26.54907227 118.41601562 C-37.87561516 118.34652171 -48.33140971 115.09617911 -56.8203125 107.3359375 C-66.01415727 97.21808823 -67.31149216 85.66352426 -67.30078125 72.4765625 C-67.30506638 71.29460297 -67.3093515 70.11264343 -67.31376648 68.89486694 C-67.3194854 66.40550372 -67.32002812 63.9161238 -67.31567383 61.42675781 C-67.31251552 57.64358667 -67.33599943 53.86119962 -67.36132812 50.078125 C-67.36360171 47.64843848 -67.36430434 45.21874987 -67.36328125 42.7890625 C-67.372491 41.67101227 -67.38170074 40.55296204 -67.39118958 39.40103149 C-67.32121346 27.36615751 -64.72453344 15.72453344 -55.9609375 6.9609375 C-40.30393199 -6.04046284 -18.65524273 -5.18887546 0 0 Z " fill="#FE5901" transform="translate(788,315)"/>
<path d="M0 0 C8.91 0 17.82 0 27 0 C30 8 30 8 31 11 C31.59425781 10.54109375 32.18851562 10.0821875 32.80078125 9.609375 C40.20842458 4.12564526 47.58913645 -0.15800908 57 0 C57.33714509 4.20803702 57.66904245 8.41647218 58 12.625 C58.09539062 13.81480469 58.19078125 15.00460938 58.2890625 16.23046875 C58.37929688 17.38417969 58.46953125 18.53789062 58.5625 19.7265625 C58.64628906 20.78439941 58.73007812 21.84223633 58.81640625 22.93212891 C58.99779014 25.96307303 59.03182747 28.96445471 59 32 C55.9797577 32.64870339 52.95886021 33.29404156 49.9375 33.9375 C48.66616211 34.21110352 48.66616211 34.21110352 47.36914062 34.49023438 C46.53447266 34.66748047 45.69980469 34.84472656 44.83984375 35.02734375 C44.08050537 35.18968506 43.32116699 35.35202637 42.53881836 35.51928711 C39.37730528 36.11790421 36.18534727 36.54495039 33 37 C33 63.4 33 89.8 33 117 C22.11 117 11.22 117 0 117 C0 78.39 0 39.78 0 0 Z " fill="#03016F" transform="translate(415,174)"/>
<path d="M0 0 C1.01964844 0.350625 2.03929687 0.70125 3.08984375 1.0625 C22.7258423 8.34070796 37.28911483 23.69389293 46.5625 42.1015625 C52.41375492 55.30171496 53.60040424 68.27853923 53.5625 82.5 C53.56467529 83.33339905 53.56685059 84.1667981 53.5690918 85.02545166 C53.5652209 98.45712636 52.06123606 110.43728907 47 123 C45.50044487 120.1533316 44.3732264 117.33686387 43.37109375 114.28125 C29.24696926 71.99385035 6.40393958 25.22808714 -35.1875 4.0625 C-40.97494863 1.28975625 -46.72995722 -0.6564194 -53 -2 C-53 -2.33 -53 -2.66 -53 -3 C-36.36667158 -5.63140315 -15.83617576 -6.27665897 0 0 Z " fill="#FF8F37" transform="translate(1349,116)"/>
<path d="M0 0 C10.89 0 21.78 0 33 0 C33 12.54 33 25.08 33 38 C22.11 38 11.22 38 0 38 C0 25.46 0 12.92 0 0 Z " fill="#FE5901" transform="translate(673,393)"/>
<path d="M0 0 C3.63 0 7.26 0 11 0 C12.98 5.94 14.96 11.88 17 18 C18.65 12.06 20.3 6.12 22 0 C25.63 0 29.26 0 33 0 C31.4011199 8.66761316 29.17727896 17.12536608 26.875 25.625 C26.49840527 27.02466088 26.12210108 28.42439996 25.74609375 29.82421875 C24.83407247 33.21705281 23.91813996 36.60881591 23 40 C19.37 40 15.74 40 12 40 C9.53062327 33.7677635 7.6813917 27.48707154 6 21 C5.85377197 21.54003662 5.70754395 22.08007324 5.55688477 22.63647461 C4.89556445 25.07110922 4.22910312 27.50430679 3.5625 29.9375 C3.33240234 30.78763672 3.10230469 31.63777344 2.86523438 32.51367188 C2.64287109 33.32255859 2.42050781 34.13144531 2.19140625 34.96484375 C1.98717041 35.7137085 1.78293457 36.46257324 1.57250977 37.23413086 C1 39 1 39 0 40 C-1.68608966 40.07205511 -3.37500659 40.08386068 -5.0625 40.0625 C-5.98160156 40.05347656 -6.90070313 40.04445312 -7.84765625 40.03515625 C-8.55792969 40.02355469 -9.26820312 40.01195312 -10 40 C-9.42658169 34.56705972 -8.46204434 29.47034741 -6.93359375 24.21875 C-6.73524429 23.51979614 -6.53689484 22.82084229 -6.33253479 22.10070801 C-5.70634573 19.89886142 -5.07208383 17.69944005 -4.4375 15.5 C-4.00792426 13.99494549 -3.57888294 12.48973833 -3.15039062 10.984375 C-2.10642215 7.32112532 -1.05521407 3.66002542 0 0 Z " fill="#03016F" transform="translate(1419,47)"/>
<path d="M0 0 C10.21474946 5.86708732 10.21474946 5.86708732 12.1875 11.83203125 C13.13210753 16.41218711 12.69278345 19.27325596 10.15234375 23.2109375 C8.97398934 24.77563761 7.76206983 26.31532674 6.52734375 27.8359375 C5.76808594 28.80660156 5.00882813 29.77726562 4.2265625 30.77734375 C-3.44967103 40.41346669 -3.44967103 40.41346669 -7.41796875 41.2421875 C-14.25505999 41.53625594 -18.30944981 39.17137537 -23.47265625 34.8359375 C-26.82822996 31.64814247 -28.39652088 28.70560308 -28.7578125 24 C-28.16625541 19.51064894 -25.21961371 16.28666092 -22.47265625 12.8359375 C-21.786875 11.9490625 -21.10109375 11.0621875 -20.39453125 10.1484375 C-9.07569285 -4.27260106 -9.07569285 -4.27260106 0 0 Z M-4.47265625 8.8359375 C-6.45067036 10.8962464 -8.24526043 12.93517605 -10.03515625 15.1484375 C-10.52951172 15.74333984 -11.02386719 16.33824219 -11.53320312 16.95117188 C-15.84487836 21.61436591 -15.84487836 21.61436591 -17.41015625 27.3984375 C-16.70163484 30.09370832 -16.70163484 30.09370832 -13.9140625 30.98828125 C-13.10839844 31.26800781 -12.30273438 31.54773438 -11.47265625 31.8359375 C-9.31975282 29.23754421 -7.17659509 26.63128397 -5.03515625 24.0234375 C-4.42349609 23.28544922 -3.81183594 22.54746094 -3.18164062 21.78710938 C-2.59833984 21.07490234 -2.01503906 20.36269531 -1.4140625 19.62890625 C-0.87467041 18.9743042 -0.33527832 18.31970215 0.22045898 17.64526367 C1.71831333 15.76159132 1.71831333 15.76159132 2.52734375 12.8359375 C0.71511841 10.7734381 0.71511841 10.7734381 -1.47265625 8.8359375 C-2.46265625 8.8359375 -3.45265625 8.8359375 -4.47265625 8.8359375 Z " fill="#03016F" transform="translate(1502.47265625,142.1640625)"/>
<path d="M0 0 C4.10403363 -0.08694042 8.20783129 -0.14037149 12.3125 -0.1875 C13.47974609 -0.21263672 14.64699219 -0.23777344 15.84960938 -0.26367188 C16.96787109 -0.27333984 18.08613281 -0.28300781 19.23828125 -0.29296875 C20.26993408 -0.3086792 21.30158691 -0.32438965 22.36450195 -0.34057617 C25 -0 25 -0 26.83520508 1.34912109 C29.49309903 5.11618857 28.4229727 10.61962519 28 15 C26.76066863 18.71799412 25.9056571 20.33032397 22.78125 22.640625 C17.9712068 24.99160117 13.27965406 24.17405453 8 24 C7.67 28.62 7.34 33.24 7 38 C3.37 38 -0.26 38 -4 38 C-3.55427102 29.39039283 -2.94680049 20.82038884 -2 12.25 C-1.9170166 11.4883252 -1.8340332 10.72665039 -1.74853516 9.94189453 C-1.36152473 6.55308224 -0.87519065 3.29472813 0 0 Z M10 7 C9.67 10.3 9.34 13.6 9 17 C13.34184202 16.81535634 13.34184202 16.81535634 17 15 C17.07148199 13.64756083 17.08399454 12.29165633 17.0625 10.9375 C17.041875 9.638125 17.02125 8.33875 17 7 C14.69 7 12.38 7 10 7 Z " fill="#03016F" transform="translate(1295,0)"/>
<path d="M0 0 C3.96 0 7.92 0 12 0 C12.66 12.21 13.32 24.42 14 37 C10.37 37 6.74 37 3 37 C3 34.69 3 32.38 3 30 C0.36 30 -2.28 30 -5 30 C-5.66 32.31 -6.32 34.62 -7 37 C-10.63 37 -14.26 37 -18 37 C-16.58777025 32.40223677 -14.72408834 28.16825507 -12.55859375 23.88671875 C-12.23085464 23.23169876 -11.90311554 22.57667877 -11.56544495 21.90180969 C-10.87731695 20.52855684 -10.18725942 19.15626931 -9.49536133 17.78491211 C-8.43299949 15.67857689 -7.37717993 13.5690578 -6.32226562 11.45898438 C-5.65142072 10.12220555 -4.98020985 8.78561029 -4.30859375 7.44921875 C-3.99192245 6.81698898 -3.67525116 6.18475922 -3.34898376 5.53337097 C-1.1161065 1.1161065 -1.1161065 1.1161065 0 0 Z M3 11 C1.68 14.63 0.36 18.26 -1 22 C0.32 22 1.64 22 3 22 C3.33 18.37 3.66 14.74 4 11 C3.67 11 3.34 11 3 11 Z " fill="#03016F" transform="translate(1172,6)"/>
<path d="M0 0 C3.375 0 3.375 0 7 1 C10.30930766 4.3941617 11.24826593 7.12793389 11.375 11.75 C11.30795848 15.69204152 11.30795848 15.69204152 9 18 C6.6875 18.5 6.6875 18.5 4 18 C0.28482262 14.11595092 -2.13804304 11.38091704 -2.1875 6 C-2.20167969 5.29875 -2.21585938 4.5975 -2.23046875 3.875 C-2 2 -2 2 0 0 Z " fill="#FF7D0F" transform="translate(1296,234)"/>
</svg>
