<?xml version="1.0" standalone="no"?>
<!DOCTYPE svg PUBLIC "-//W3C//DTD SVG 20010904//EN"
 "http://www.w3.org/TR/2001/REC-SVG-20010904/DTD/svg10.dtd">
<svg version="1.0" xmlns="http://www.w3.org/2000/svg"
 width="1517.000000pt" height="512.000000pt" viewBox="0 0 1517.000000 512.000000"
 preserveAspectRatio="xMidYMid meet">

<g transform="translate(0.000000,512.000000) scale(0.100000,-0.100000)"
fill="#000000" stroke="none">
<path d="M12937 4958 c-25 -231 -26 -218 27 -218 49 0 56 9 56 70 0 61 7 70
54 71 98 1 141 38 151 131 7 52 5 59 -18 82 -25 25 -31 26 -140 26 l-113 0
-17 -162z m182 88 c7 -9 8 -27 3 -52 -7 -36 -11 -39 -45 -42 l-37 -3 0 40 c0
21 3 46 6 55 8 20 57 21 73 2z"/>
<path d="M11635 4880 c-47 -93 -85 -174 -85 -180 0 -5 20 -10 44 -10 42 0 45
2 60 41 16 39 18 40 59 37 41 -3 42 -4 45 -40 3 -38 3 -38 48 -38 l45 0 -6
158 c-8 215 -4 202 -70 202 l-55 0 -85 -170z m125 15 l0 -65 -31 0 c-17 0 -29
4 -27 8 2 4 14 33 27 65 14 31 26 57 28 57 2 0 3 -29 3 -65z"/>
<path d="M14144 4453 l-51 -188 45 -3 c24 -2 46 -1 49 1 2 3 17 51 32 108 16
57 31 97 34 89 4 -8 13 -42 22 -75 37 -135 31 -126 87 -123 l51 3 48 180 c27
99 49 184 49 188 0 4 -21 7 -47 5 l-46 -3 -27 -98 c-15 -54 -29 -100 -32 -102
-2 -2 -17 43 -32 100 l-29 105 -51 0 -51 0 -51 -187z"/>
<path d="M9180 3880 c-25 -4 -84 -13 -132 -20 l-88 -12 0 -240 0 -240 -22 6
c-176 48 -342 17 -428 -82 -72 -81 -82 -134 -88 -445 -5 -313 6 -435 44 -515
45 -92 125 -134 259 -135 83 -1 155 21 225 68 l49 33 15 -39 16 -39 125 0 125
0 0 835 0 835 -27 -1 c-16 -1 -48 -5 -73 -9z m-251 -766 l31 -6 0 -298 0 -298
-43 -21 c-55 -27 -117 -27 -148 -2 -24 19 -24 20 -27 268 -2 136 0 263 3 282
10 53 45 81 103 81 27 0 64 -3 81 -6z"/>
<path d="M176 3022 c-93 -427 -171 -783 -173 -789 -4 -10 34 -13 165 -13 l169
0 22 138 c13 75 25 147 28 160 5 22 8 22 153 22 l147 0 22 -137 c13 -76 25
-148 28 -160 5 -23 7 -23 169 -23 121 0 164 3 164 12 0 12 -327 1519 -336
1551 -5 15 -23 17 -197 17 l-192 0 -169 -778z m413 103 c23 -143 45 -268 47
-277 5 -16 -4 -18 -96 -18 -101 0 -102 0 -97 23 3 12 25 140 48 284 24 145 46
259 50 255 3 -4 25 -124 48 -267z"/>
<path d="M14902 3675 c-16 -14 -57 -61 -91 -106 -68 -90 -75 -121 -41 -176 25
-41 93 -91 135 -99 52 -9 83 13 162 114 61 77 73 100 73 130 0 50 -28 92 -86
130 -60 40 -110 43 -152 7z m128 -79 c14 -16 20 -31 16 -41 -13 -34 -132 -175
-147 -175 -9 0 -27 8 -40 19 -20 16 -22 22 -12 42 17 38 134 179 147 179 7 0
23 -11 36 -24z"/>
<path d="M1645 3386 c-54 -13 -150 -59 -160 -76 -12 -20 -32 -9 -41 23 l-10
32 -127 3 -127 3 0 -836 0 -837 28 6 c15 3 77 12 137 21 61 9 120 18 133 21
l22 4 0 236 0 236 23 -6 c67 -19 162 -25 228 -16 124 18 200 74 252 187 21 46
22 61 25 395 3 287 1 358 -12 408 -25 96 -77 159 -154 185 -59 20 -161 26
-217 11z m35 -276 c32 -17 40 -76 40 -310 0 -252 -7 -293 -50 -315 -29 -15
-106 -20 -147 -9 l-23 6 0 300 0 299 43 19 c46 21 108 26 137 10z"/>
<path d="M2652 3385 c-52 -15 -137 -58 -148 -76 -12 -20 -33 -7 -44 26 l-12
35 -124 0 -124 0 0 -836 0 -836 23 5 c12 3 74 13 137 22 63 9 123 18 133 21
16 5 17 25 17 241 l0 236 33 -7 c140 -30 260 -25 338 14 58 30 115 94 141 158
23 56 23 64 23 427 0 368 0 370 -24 422 -28 64 -96 128 -148 142 -71 19 -165
22 -221 6z m58 -285 c19 -19 20 -33 20 -297 -1 -292 -1 -297 -47 -321 -26 -15
-112 -16 -148 -2 l-25 10 2 292 3 293 45 23 c57 28 123 29 150 2z"/>
<path d="M3470 3390 c-47 -5 -116 -18 -155 -28 -70 -18 -70 -18 -69 -53 1 -19
9 -78 19 -132 15 -84 20 -97 35 -92 102 32 277 45 323 24 35 -16 47 -50 47
-134 l0 -75 -77 0 c-118 0 -237 -17 -280 -39 -51 -26 -87 -66 -115 -126 -20
-44 -23 -66 -23 -180 0 -101 4 -142 19 -184 20 -58 73 -124 119 -147 100 -52
295 -28 361 45 26 29 33 27 46 -14 l12 -35 129 0 130 0 -4 468 c-2 331 -6 478
-15 503 -18 53 -63 116 -103 143 -76 52 -231 73 -399 56z m200 -834 c0 -106 1
-106 -92 -106 -62 0 -88 30 -88 105 0 75 24 93 123 94 l57 1 0 -94z"/>
<path d="M5094 3386 c-156 -36 -250 -125 -288 -272 -13 -49 -16 -118 -16 -325
0 -271 5 -310 45 -403 25 -58 105 -131 171 -156 140 -52 353 -46 545 16 l46
14 -22 116 c-12 63 -24 116 -26 118 -2 3 -40 -4 -84 -15 -112 -26 -258 -26
-303 1 -41 25 -52 54 -52 141 l0 69 246 0 246 0 -5 208 c-5 229 -15 282 -70
363 -36 54 -91 94 -162 114 -73 22 -199 27 -271 11z m182 -269 c24 -21 28 -32
32 -105 l5 -82 -102 0 -101 0 0 70 c0 107 23 138 102 139 25 1 46 -7 64 -22z"/>
<path d="M6062 3390 c-126 -18 -236 -90 -283 -186 -43 -91 -49 -135 -49 -409
0 -273 6 -318 49 -408 78 -161 271 -223 549 -175 71 12 67 -1 47 148 -8 58
-15 108 -15 112 0 3 -44 4 -97 1 -116 -6 -161 7 -193 59 -18 31 -20 50 -20
263 0 213 2 232 20 263 32 52 77 65 193 59 53 -3 97 -2 97 1 0 4 7 54 15 112
20 147 24 136 -42 148 -88 17 -201 21 -271 12z"/>
<path d="M6815 3393 c-95 -13 -208 -72 -251 -130 -75 -101 -84 -150 -84 -468
0 -341 13 -401 108 -493 88 -86 223 -119 417 -102 120 11 264 46 272 66 5 13
-30 220 -38 229 -2 2 -42 -6 -89 -17 -63 -15 -110 -19 -187 -16 -95 3 -105 5
-128 29 -25 24 -44 101 -45 177 l0 22 251 0 251 0 -5 208 c-6 260 -25 331
-113 414 -69 65 -223 100 -359 81z m142 -268 c27 -19 43 -72 43 -142 l0 -53
-106 0 -107 0 7 70 c7 81 20 114 50 128 32 16 89 14 113 -3z"/>
<path d="M7932 3385 c-61 -17 -104 -38 -149 -71 -17 -13 -34 -24 -37 -24 -3 0
-11 18 -17 40 l-12 40 -134 0 -133 0 0 -575 0 -575 160 0 160 0 0 430 0 430
26 16 c14 10 47 19 73 22 40 3 52 1 70 -17 21 -21 21 -26 21 -451 l0 -430 160
0 160 0 0 453 c0 248 -5 481 -10 516 -12 85 -51 148 -110 178 -59 30 -158 38
-228 18z"/>
<path d="M9780 3390 c-184 -31 -284 -116 -326 -275 -10 -36 -14 -126 -14 -320
0 -283 5 -328 48 -411 29 -58 112 -129 179 -154 175 -65 399 -39 516 61 58 50
96 113 113 188 19 78 19 554 0 632 -36 154 -149 250 -328 279 -71 11 -122 11
-188 0z m181 -299 l29 -29 0 -262 c0 -160 -4 -269 -10 -281 -16 -28 -63 -49
-114 -49 -36 0 -52 6 -78 29 l-33 29 0 267 0 267 33 29 c27 25 41 29 88 29 48
0 59 -4 85 -29z"/>
<path d="M4665 3370 c-51 -12 -106 -39 -156 -75 -27 -19 -51 -35 -54 -35 -2 0
-12 25 -20 55 l-16 55 -130 0 -129 0 0 -575 0 -575 160 0 160 0 0 395 0 394
69 21 c37 11 88 23 113 26 25 4 51 10 58 14 16 10 3 310 -14 309 -6 -1 -24 -4
-41 -9z"/>
<path d="M10716 2198 c28 -410 53 -578 111 -723 117 -294 319 -512 598 -646
141 -68 247 -95 453 -119 416 -47 831 -50 1292 -10 358 30 502 74 710 213 75
50 246 213 289 275 l22 32 -888 0 -889 0 -1 -39 c-3 -55 -26 -96 -75 -129 -35
-23 -52 -27 -107 -26 -111 1 -209 62 -281 173 -16 26 -69 78 -117 118 -48 39
-140 125 -204 191 l-117 119 -80 5 c-224 13 -376 199 -359 438 3 41 12 95 21
118 11 32 13 49 6 63 -10 18 -24 19 -200 19 l-189 0 5 -72z"/>
<path d="M7490 1976 c-128 -36 -211 -116 -250 -244 -18 -57 -20 -93 -20 -336
0 -221 3 -283 16 -327 42 -141 113 -212 253 -255 81 -24 345 -14 373 14 8 8
-15 239 -24 247 -2 1 -30 -1 -63 -6 -96 -14 -162 -2 -204 37 l-36 32 -3 241
c-3 267 0 284 61 322 28 18 46 20 139 17 l108 -3 5 30 c15 89 25 209 18 216
-29 28 -289 38 -373 15z"/>
<path d="M8245 1971 c-80 -23 -118 -44 -165 -91 -50 -50 -85 -119 -99 -195
-14 -76 -14 -504 0 -581 21 -114 90 -209 189 -259 61 -31 132 -45 235 -45 154
0 244 31 325 112 90 89 110 177 110 483 0 110 -5 231 -10 270 -24 165 -116
267 -283 311 -72 19 -228 17 -302 -5z m229 -262 c50 -23 56 -56 56 -312 0
-251 -5 -285 -48 -313 -30 -20 -117 -23 -150 -5 -48 25 -52 52 -52 316 0 256
3 274 44 307 25 21 112 24 150 7z"/>
<path d="M9453 1976 c-23 -8 -69 -31 -102 -53 l-59 -40 -17 43 -17 44 -129 0
-129 0 0 -575 0 -575 155 0 155 0 0 430 0 430 33 20 c20 12 50 20 79 20 81 0
78 18 78 -472 l0 -428 155 0 155 0 0 430 0 430 33 20 c38 23 105 26 133 6 18
-14 19 -32 22 -450 l3 -436 155 0 155 0 -3 498 -3 498 -30 59 c-25 50 -39 63
-84 87 -100 52 -242 34 -358 -46 l-48 -33 -40 41 c-23 24 -57 47 -81 54 -53
15 -157 14 -211 -2z"/>
<path d="M6740 1000 l0 -180 155 0 155 0 0 180 0 180 -155 0 -155 0 0 -180z"/>
<path d="M13792 159 c56 -66 111 -127 122 -135 27 -19 91 -18 121 2 26 17 46
61 70 155 9 35 18 72 21 82 5 16 -10 17 -216 17 l-221 0 103 -121z"/>
</g>
</svg>
