<?xml version="1.0" standalone="yes"?>
<svg xmlns="http://www.w3.org/2000/svg" width="1517" height="512">
<path style="fill:#ffffff; stroke:none;" d="M0 0L0 286C5.0564 275.499 5.90879 261.389 8.42438 250C14.0899 224.35 19.6672 198.677 25.2099 173L31.5756 144C32.3029 140.689 32.3485 135.137 35.4329 133.028C38.3434 131.038 43.6588 132 47 132L74 132C75.1899 146.952 80.0391 162.37 83.3495 177C88.3173 198.955 92.6896 221.044 97.6505 243C101.224 258.815 105.837 274.937 108 291L85 291C82.0758 291 77.8911 291.679 75.3171 289.972C72.8236 288.319 72.6969 284.666 72.2469 282C71.2898 276.33 71.586 265.117 67.8356 260.603C66.0615 258.468 62.4581 259.005 60 259L39 259C38.1512 269.74 35.3574 280.315 34 291L0 291L0 512L1392 512C1376.55 495.089 1361.81 477.553 1345.96 461C1341.86 456.722 1337.29 453.031 1333 448.961C1330.64 446.724 1328.27 443.667 1325 442.773C1319.96 441.395 1313.13 443.557 1308 443.91C1296.36 444.712 1284.65 445.45 1273 445.961C1253 446.836 1232.89 445.459 1213 444.09C1179.06 441.752 1146.33 437.754 1119 415.384C1099.83 399.698 1085.25 378.926 1078.43 355C1072.73 335.021 1071.86 313.611 1070.96 293C1069.94 269.614 1069.94 246.386 1070.96 223C1071.86 202.366 1072.72 181.007 1078.43 161C1086.05 134.279 1103.23 110.891 1126 95.0394C1156.95 73.4966 1192.96 73.3787 1229 70.9105C1248.39 69.5827 1267.62 70.1118 1287 70.9606C1309.15 71.9305 1332.51 72.2943 1354 78.4275C1387.11 87.8758 1415.51 111.837 1430.22 143C1435.57 154.343 1439.04 166.585 1440.72 179C1448.25 234.916 1447.11 292.158 1439.42 348C1433.91 388.022 1427.14 427.542 1418.42 467C1416.64 475.068 1414.43 483 1412.37 491C1410.35 498.838 1408.87 506.044 1402 511C1405.7 512.552 1410.02 512 1414 512L1437 512L1517 512L1517 0L1320 0C1324.02 7.31046 1324.67 18.0606 1315.98 22.5432C1312.07 24.5657 1307.27 24 1303 24L1302 38L1291 38C1291.55 25.2953 1294 12.6732 1295 0L0 0z"/>
<path style="fill:#040270; stroke:none;" d="M1295 0C1293.42 12.5158 1291.26 25.3835 1291 38L1302 38L1303 24C1307.84 24 1313.65 24.8199 1317.89 21.9908C1322.95 18.618 1325.93 6.02499 1320.68 1.60339C1318.34 -0.368591 1314.85 0.00585938 1312 0L1295 0M1154 43L1165 43C1166.69 37.3638 1169.3 36.0675 1175 36L1175 43L1186 43C1183.81 31.223 1184 17.9827 1184 6C1180.55 6 1175.43 5.08759 1172.39 7.02777C1169.3 9.00021 1167.82 13.8615 1166.25 17C1162.05 25.3986 1156.6 33.963 1154 43z"/>
<path style="fill:#ffffff; stroke:none;" d="M1305 7L1304 17C1310.95 16.618 1311.98 13.4334 1312 7L1305 7M1175 17L1171 28L1175 28C1175.08 24.3485 1176.23 20.4311 1175 17z"/>
<path style="fill:#040270; stroke:none;" d="M1419 47C1415.97 60.1965 1410.1 73.4716 1409 87C1411.78 86.9997 1416.06 87.7303 1418.44 85.9722C1422.45 83.004 1423.62 71.6794 1424 67C1426.82 71.867 1426.99 82.7622 1431.51 85.9722C1434.16 87.8484 1438.93 87 1442 87C1443.83 73.4008 1450 60.5634 1452 47L1441 47L1436 67C1434.13 62.1225 1433.47 51.285 1429.27 48.0278C1426.8 46.1119 1421.93 47 1419 47z"/>
<path style="fill:#ab5601; stroke:none;" d="M1232 70L1233 71L1232 70z"/>
<path style="fill:#fe8b06; stroke:none;" d="M1154 81C1159.71 83.3949 1167.85 82 1174 82L1216 82L1362 82C1357.58 78.1057 1350.7 77.0854 1345 76.0841C1332.9 73.958 1320.28 72.3461 1308 71.9861C1298.34 71.7028 1288.65 70.4622 1279 70.0394C1252.1 68.8613 1224.72 70.1595 1198 72.831C1183.6 74.2704 1167.19 74.3785 1154 81z"/>
<path style="fill:#010101; stroke:none;" d="M1213 71L1214 72L1213 71z"/>
<path style="fill:#808001; stroke:none;" d="M1200 72L1201 73L1200 72z"/>
<path style="fill:#010101; stroke:none;" d="M1190 73L1191 74L1190 73z"/>
<path style="fill:#ab5601; stroke:none;" d="M1168 76L1169 77L1168 76z"/>
<path style="fill:#010101; stroke:none;" d="M1164 77L1165 78L1164 77z"/>
<path style="fill:#ab5601; stroke:none;" d="M1154 80L1155 81L1154 80z"/>
<path style="fill:#010101; stroke:none;" d="M1151 81L1152 82L1151 81z"/>
<path style="fill:#fe8a06; stroke:none;" d="M1136 90L1380 90C1367.26 77.1262 1343.48 82 1327 82L1191 82L1163 82C1157.86 81.9918 1152.93 81.0267 1148 82.8187C1143.65 84.398 1138.59 86.0396 1136 90z"/>
<path style="fill:#808001; stroke:none;" d="M1366 82L1367 83L1366 82z"/>
<path style="fill:#010101; stroke:none;" d="M1146 83L1147 84L1146 83z"/>
<path style="fill:#ab5601; stroke:none;" d="M1134 89L1135 90L1134 89z"/>
<path style="fill:#fe8906; stroke:none;" d="M1121 99L1393 99C1388.27 90.3509 1379.67 89.9866 1371 90L1332 90L1178 90L1150 90C1138.63 90 1129 89.3454 1121 99z"/>
<path style="fill:#ab5601; stroke:none;" d="M1129 92L1130 93L1129 92z"/>
<path style="fill:#010101; stroke:none;" d="M1390 95L1391 96L1390 95z"/>
<path style="fill:#fe8806; stroke:none;" d="M1112 107L1402 107C1399.53 98.5701 1392.3 98.9668 1385 98.9992C1369.33 99.0687 1353.67 99 1338 99L1170 99L1136 99C1125.99 99 1118.38 98.0206 1112 107z"/>
<path style="fill:#808001; stroke:none;" d="M1394 98L1395 99L1394 98z"/>
<path style="fill:#010101; stroke:none;" d="M1112 105L1113 106L1112 105z"/>
<path style="fill:#fe8706; stroke:none;" d="M1402 105C1397.39 108.494 1389.59 107 1384 107L1342 107L1176 107L1125 107C1116.37 107 1108.34 105.174 1105 115C1159.98 115 1215.03 115.724 1270 115.215C1275.36 115.166 1280.63 112.831 1286 112.301C1297.89 111.128 1311.01 111.514 1323 112.039C1331.63 112.417 1340.85 113.994 1349 116.865C1353.96 118.611 1358.82 122.218 1364 123.077C1369.33 123.961 1375.57 123 1381 123L1418 123C1414.4 115.946 1408.45 109.546 1402 105z"/>
<path style="fill:#808001; stroke:none;" d="M1105 112L1106 113L1105 112z"/>
<path style="fill:#fea748; stroke:none;" d="M1284 112C1286.61 113.098 1289.16 112.993 1292 113C1289.39 111.902 1286.84 112.007 1284 112z"/>
<path style="fill:#ff9239; stroke:none;" d="M1295 112C1301.79 116.721 1311.58 118.039 1319 122.453C1325.87 126.538 1332.28 131.438 1338 137.015C1342.02 140.932 1345.74 146.132 1350.29 149.397C1353.23 151.512 1357.01 151.074 1360 153.318C1369.86 160.711 1378.29 171.287 1387 180C1391.33 184.332 1395.4 189.386 1401 192C1401 187.615 1401.85 182.16 1400.26 178C1396.46 168.052 1384.53 162.354 1377 155.857C1369.91 149.737 1363.89 142.397 1357 136.058C1351.88 131.348 1346.01 128.005 1341 123L1346 123C1334.94 107.307 1312.03 112 1295 112z"/>
<path style="fill:#fecf9c; stroke:none;" d="M1278.67 113.333C1278.22 113.778 1279.28 113.722 1279.33 113.667C1279.78 113.222 1278.72 113.278 1278.67 113.333z"/>
<path style="fill:#fefefe; stroke:none;" d="M1208 329C1234.01 328.997 1259.34 324.071 1285 331.427C1298.63 335.333 1308.59 344.825 1321 351.029C1339.83 360.445 1368.64 362.309 1384.99 346.907C1403.22 329.722 1401.66 300.828 1400.09 278C1396.84 230.751 1380.67 186.97 1350.61 150C1334.52 130.203 1311.72 112.36 1285 113.015C1261.08 113.601 1244.89 135.568 1237.06 156C1233.97 164.086 1232.52 173.239 1228.81 181C1222.88 193.416 1213.68 205.465 1204.92 216C1190.97 232.782 1174.82 248.153 1156 259.396C1143.63 266.789 1125.78 270.858 1116.33 282.015C1102.78 298.012 1105.56 326.131 1121 339.815C1129.92 347.716 1140.73 348.404 1152 348.011C1157.56 347.817 1164.81 344.278 1168.96 349.149C1178.69 360.573 1185.05 375.363 1193.05 388C1198.8 397.065 1205.16 405.141 1216 408.073C1229.27 411.661 1243.83 403.164 1240.47 388C1238.7 380.009 1233.08 373.854 1229.01 367C1221.66 354.601 1214.72 341.753 1208 329z"/>
<path style="fill:#ffdab9; stroke:none;" d="M1294 113C1295.25 113.685 1295.55 113.749 1297 114C1295.75 113.315 1295.45 113.251 1294 113z"/>
<path style="fill:#fe8606; stroke:none;" d="M1098 123L1207 123L1242 123C1247.02 123 1253.1 124.006 1258 122.988C1262.59 122.034 1266.75 117.989 1271 116C1266.78 114.231 1261.54 115 1257 115L1231 115L1138 115L1115 115C1111.69 114.999 1107.15 114.063 1104.04 115.313C1100.74 116.638 1099.19 119.926 1098 123z"/>
<path style="fill:#fecb93; stroke:none;" d="M1274.67 114.333C1274.22 114.778 1275.28 114.722 1275.33 114.667C1275.78 114.222 1274.72 114.278 1274.67 114.333z"/>
<path style="fill:#ffb97b; stroke:none;" d="M1300.67 114.333C1300.22 114.778 1301.28 114.722 1301.33 114.667C1301.78 114.222 1300.72 114.278 1300.67 114.333z"/>
<path style="fill:#ff913c; stroke:none;" d="M1338 114C1340.34 117.33 1343.12 120.117 1346 123L1341 123C1345.59 129.514 1352.43 132.533 1358 138.005C1364 143.895 1369.63 150.361 1376 155.857C1378.8 158.272 1382.2 159.728 1385 162.143C1390.18 166.613 1394.39 172.046 1400 176C1399.66 168.525 1396.59 161.598 1393.24 155C1382.57 133.967 1361.74 117.197 1338 114z"/>
<path style="fill:#fed1a1; stroke:none;" d="M1272 115L1273 116L1272 115z"/>
<path style="fill:#ffc898; stroke:none;" d="M1304 115L1305 116L1304 115z"/>
<path style="fill:#feb15d; stroke:none;" d="M1269 116L1270 117L1269 116z"/>
<path style="fill:#ffba7f; stroke:none;" d="M1307 116L1308 117L1307 116z"/>
<path style="fill:#808001; stroke:none;" d="M1413 116L1414 117L1413 116z"/>
<path style="fill:#feba72; stroke:none;" d="M1267 117L1268 118L1267 117z"/>
<path style="fill:#ffd6b3; stroke:none;" d="M1309 117L1310 118L1309 117z"/>
<path style="fill:#808001; stroke:none;" d="M1099 119L1100 120L1099 119z"/>
<path style="fill:#fed1a1; stroke:none;" d="M1264 119L1265 120L1264 119z"/>
<path style="fill:#feb669; stroke:none;" d="M1262 120L1263 121L1262 120z"/>
<path style="fill:#fed3a4; stroke:none;" d="M1261 121L1262 122L1261 121z"/>
<path style="fill:#ffd9b9; stroke:none;" d="M1317 121L1318 122L1317 121z"/>
<path style="fill:#040270; stroke:none;" d="M896 175C890.534 172.949 884.833 172.029 879 172.001C873.566 171.975 868.239 172.141 863 173.775C836.053 182.18 842 218.34 842 240C842 253.831 839.592 270.906 848.108 282.91C860.074 299.777 886.336 293.418 900 283L902 291L928 291L928 122C920.98 122.888 914.009 124.153 907 125.13C904.27 125.511 899.84 125.389 897.603 127.178C894.66 129.532 896 136.679 896 140L896 175z"/>
<path style="fill:#fe8506; stroke:none;" d="M1097 122C1094.82 125.249 1092.9 128.173 1092 132L1213 132L1239 132C1242.23 132.001 1246.81 132.963 1249.83 131.687C1253.3 130.221 1255.93 125.971 1258 123L1151 123L1118 123C1111.03 123 1103.82 123.623 1097 122z"/>
<path style="fill:#ffc593; stroke:none;" d="M1319 122L1320 123L1319 122z"/>
<path style="fill:#fe8406; stroke:none;" d="M1365 123C1368.62 128.993 1376.07 132.753 1380.83 138.001C1383.26 140.683 1385.47 144.652 1389.17 145.682C1392.77 146.685 1397.29 146 1401 146C1411.06 146 1422.18 144.662 1432 147C1430.05 140.24 1424.95 127.795 1418.67 124.028C1414.7 121.644 1407.47 123 1403 123L1365 123z"/>
<path style="fill:#feba72; stroke:none;" d="M1257 124L1258 125L1257 124z"/>
<path style="fill:#ffdbbe; stroke:none;" d="M1322 124L1323 125L1322 124z"/>
<path style="fill:#febf7c; stroke:none;" d="M1256 125L1257 126L1256 125z"/>
<path style="fill:#febd78; stroke:none;" d="M1255 126L1256 127L1255 126z"/>
<path style="fill:#ffcfa7; stroke:none;" d="M1325 126L1326 127L1325 126z"/>
<path style="fill:#feb971; stroke:none;" d="M1254 127L1255 128L1254 127z"/>
<path style="fill:#feb86d; stroke:none;" d="M1253 128L1254 129L1253 128z"/>
<path style="fill:#ffc28f; stroke:none;" d="M1328 128L1329 129L1328 128z"/>
<path style="fill:#feb466; stroke:none;" d="M1252 129L1253 130L1252 129z"/>
<path style="fill:#ffd9ba; stroke:none;" d="M1329 129L1330 130L1329 129z"/>
<path style="fill:#fe8406; stroke:none;" d="M1091 131C1089.31 134.011 1088.35 136.562 1088 140L1210 140L1234 140C1237.26 140 1241.75 140.744 1244.67 138.972C1247.2 137.436 1248.15 134.641 1249 132L1144 132L1111 132C1104.34 132 1097.51 132.551 1091 131z"/>
<path style="fill:#040270; stroke:none;" d="M0 291L34 291C35.9678 280.556 38.5439 269.622 39 259C45.9995 259 53.0007 258.953 60 259.001C62.7727 259.02 66.0461 258.761 67.8356 261.318C71.3119 266.284 71.1029 276.118 72.0802 282C72.4804 284.408 72.4884 288.331 74.5995 289.972C76.901 291.761 81.2846 291 84 291L108 291C106.885 277.35 102.379 263.375 99.4244 250C94.054 225.686 88.946 201.314 83.5756 177C80.2972 162.157 75.9465 147.073 74 132L46 132C42.8995 132 37.3384 130.964 34.7384 133.028C32.0747 135.142 32.0458 140.919 31.3495 144C29.1685 153.653 27.0719 163.324 25 173C19.8589 197.01 14.7612 221.05 9.34954 245C6.00069 259.821 0.653944 275.808 0 291z"/>
<path style="fill:#ffcea1; stroke:none;" d="M1283 132C1285.33 132.985 1287.46 132.981 1290 133C1287.67 132.016 1285.54 132.019 1283 132z"/>
<path style="fill:#ffbc84; stroke:none;" d="M1333 132L1334 133L1333 132z"/>
<path style="fill:#fec991; stroke:none;" d="M1249 133L1250 134L1249 133z"/>
<path style="fill:#ffac61; stroke:none;" d="M1279.67 133.333C1279.22 133.778 1280.28 133.722 1280.33 133.667C1280.78 133.222 1279.72 133.278 1279.67 133.333z"/>
<path style="fill:#ff8b27; stroke:none;" d="M1275 135C1277.96 141.358 1284.09 146.088 1289 151C1300.52 162.516 1313.17 173.732 1327 182.397C1329.8 184.152 1333.21 183.835 1336 185.603C1340.2 188.261 1343.37 192.603 1347 195.942C1349.77 198.491 1353.08 199.987 1356 202.299C1360.6 205.943 1364.18 210.606 1369 214C1366.05 203.959 1359.09 193.698 1353.33 185C1336.42 159.443 1310.03 125.155 1275 135z"/>
<path style="fill:#ffcfa4; stroke:none;" d="M1294.67 133.333C1294.22 133.778 1295.28 133.722 1295.33 133.667C1295.78 133.222 1294.72 133.278 1294.67 133.333z"/>
<path style="fill:#ffd0a9; stroke:none;" d="M1334 133L1335 134L1334 133z"/>
<path style="fill:#010101; stroke:none;" d="M1425 133L1426 134L1425 133z"/>
<path style="fill:#feae5a; stroke:none;" d="M1248 134L1249 135L1248 134z"/>
<path style="fill:#ffca9b; stroke:none;" d="M1276 134L1277 135L1276 134z"/>
<path style="fill:#ffb777; stroke:none;" d="M1298 134L1299 135L1298 134z"/>
<path style="fill:#ffd9b9; stroke:none;" d="M1335 134L1336 135L1335 134z"/>
<path style="fill:#ffc48e; stroke:none;" d="M1274 135L1275 136L1274 135z"/>
<path style="fill:#ffc089; stroke:none;" d="M1301 135L1302 136L1301 135z"/>
<path style="fill:#ffdabb; stroke:none;" d="M1336 135L1337 136L1336 135z"/>
<path style="fill:#ffcc9d; stroke:none;" d="M1272 136L1273 137L1272 136z"/>
<path style="fill:#ff871d; stroke:none;" d="M1267 141C1269.61 144.707 1272.8 147.794 1276 151L1270 151C1278.86 163.571 1292.13 174.129 1303 185C1307.55 189.547 1312.83 197.121 1319 199.397C1323.38 201.01 1329.39 200 1334 200C1330.62 195.225 1326.44 193.218 1322 189.701C1316.94 185.689 1312.56 180.564 1308 176L1310 176C1303.47 166.727 1294.01 159.014 1286 151L1289 151C1286.12 146.909 1278.69 136.405 1273 137.056C1270.59 137.332 1268.69 139.505 1267 141z"/>
<path style="fill:#ffdabc; stroke:none;" d="M1337 136L1338 137L1337 136z"/>
<path style="fill:#feb76e; stroke:none;" d="M1246 137L1247 138L1246 137z"/>
<path style="fill:#ffdabb; stroke:none;" d="M1306 137L1307 138L1306 137z"/>
<path style="fill:#ffdbbe; stroke:none;" d="M1338 137L1339 138L1338 137z"/>
<path style="fill:#fe8306; stroke:none;" d="M1087 138C1085.61 141.342 1084 144.516 1083 148C1094.16 143.272 1110.01 146 1122 146L1204 146L1231 146C1237.24 146 1241.91 146.801 1244 140L1133 140L1103 140C1097.52 140 1091.93 140.74 1087 138z"/>
<path style="fill:#ffd1a7; stroke:none;" d="M1269 138L1270 139L1269 138z"/>
<path style="fill:#fed7ad; stroke:none;" d="M1245 139L1246 140L1245 139z"/>
<path style="fill:#ffc085; stroke:none;" d="M1268 139L1269 140L1268 139z"/>
<path style="fill:#fea851; stroke:none;" d="M1244 140L1245 141L1244 140z"/>
<path style="fill:#ffaf66; stroke:none;" d="M1267 140L1268 141L1267 140z"/>
<path style="fill:#ffc28f; stroke:none;" d="M1311 140L1312 141L1311 140z"/>
<path style="fill:#ffb068; stroke:none;" d="M1266 141L1267 142L1266 141z"/>
<path style="fill:#ffdabb; stroke:none;" d="M1313 141L1314 142L1313 141z"/>
<path style="fill:#040270; stroke:none;" d="M1494 141.576C1486.82 143.54 1480.91 153.06 1477.1 159C1475.56 161.408 1474.19 164.063 1474.29 167C1474.62 176.592 1486.9 185.051 1496 182.566C1499.16 181.704 1501.32 179.433 1503.33 176.985C1507.68 171.712 1515.35 164.417 1514.77 157C1514.09 148.422 1502.58 139.231 1494 141.576z"/>
<path style="fill:#fec78f; stroke:none;" d="M1243 142L1244 143L1243 142z"/>
<path style="fill:#ffc48e; stroke:none;" d="M1265 142L1266 143L1265 142z"/>
<path style="fill:#ff851a; stroke:none;" d="M1257 156C1277.38 167.452 1293.52 188.524 1310 205C1315 209.999 1320 216.608 1326 220.397C1329.43 222.564 1333.46 221.317 1337 223.023C1340.27 224.599 1342.43 227 1346 228C1338.95 217.996 1328.65 209.647 1320 201L1270 151L1276 151C1274.07 148.26 1270.85 143.206 1267.02 143.207C1262.07 143.207 1258.61 152.27 1257 156z"/>
<path style="fill:#ffb87c; stroke:none;" d="M1314 142L1315 143L1314 142z"/>
<path style="fill:#ffd8b4; stroke:none;" d="M1264 143L1265 144L1264 143z"/>
<path style="fill:#ffce9c; stroke:none;" d="M1242 144L1243 145L1242 144z"/>
<path style="fill:#ffc391; stroke:none;" d="M1317 144L1318 145L1317 144z"/>
<path style="fill:#ff8305; stroke:none;" d="M1082 151L1187 151L1219 151C1225.66 151 1232.49 150.449 1239 152L1241 146L1121 146L1095 146C1089.42 146 1084.78 145.483 1082 151z"/>
<path style="fill:#ffd0a0; stroke:none;" d="M1241 146L1242 147L1241 146z"/>
<path style="fill:#ffd8b7; stroke:none;" d="M1347 146L1348 147L1347 146z"/>
<path style="fill:#ff8205; stroke:none;" d="M1388 146C1391.43 153.34 1396.1 160.02 1398 168C1406.62 165.947 1416.17 167 1425 167C1428.06 167 1433.85 168.068 1436.38 165.972C1440.13 162.879 1434.15 149.059 1430.78 147.028C1427.4 144.996 1421.78 146 1418 146L1388 146z"/>
<path style="fill:#ffbb7b; stroke:none;" d="M1261 147L1262 148L1261 147z"/>
<path style="fill:#ffc291; stroke:none;" d="M1348 147L1349 148L1348 147z"/>
<path style="fill:#808001; stroke:none;" d="M1082 148L1083 149L1082 148z"/>
<path style="fill:#ffd3a6; stroke:none;" d="M1240 148L1241 149L1240 148z"/>
<path style="fill:#ffcea5; stroke:none;" d="M1322 148L1323 149L1322 148z"/>
<path style="fill:#ffae63; stroke:none;" d="M1260 149L1261 150L1260 149z"/>
<path style="fill:#ffc08a; stroke:none;" d="M1323 149L1324 150L1323 149z"/>
<path style="fill:#ffd4a9; stroke:none;" d="M1239 150L1240 151L1239 150z"/>
<path style="fill:#ffb06d; stroke:none;" d="M1324 150L1325 151L1324 150z"/>
<path style="fill:#ff8205; stroke:none;" d="M1081 151L1079 159L1200 159L1225 159C1227.96 159 1232.77 159.871 1235.3 157.972C1237.39 156.402 1237.64 153.359 1238 151L1081 151z"/>
<path style="fill:#ff8321; stroke:none;" d="M1286 151C1292.53 160.273 1301.99 167.986 1310 176L1308 176C1315.06 186.025 1325.52 191.549 1334 200L1332 200C1339.77 211.025 1350.01 216.604 1361 223.565C1367.06 227.405 1372.57 233.002 1379 236C1376.67 229.142 1373.93 220.101 1369.35 214.424C1363.5 207.167 1355.85 202.773 1349 196.857C1344.91 193.326 1341.59 188.511 1337 185.603C1334.51 184.025 1331.57 184.271 1329 182.973C1324.7 180.804 1319.82 176.707 1316 173.702C1311.44 170.121 1306.24 166.846 1302 162.942C1297.05 158.389 1292.99 152.079 1286 151z"/>
<path style="fill:#ffdabd; stroke:none;" d="M1351 151L1352 152L1351 151z"/>
<path style="fill:#ff8a34; stroke:none;" d="M1352 151C1354.59 156.022 1358.52 160.291 1361.67 165C1368.1 174.622 1374.15 184.521 1379.11 195C1382.94 203.091 1386.48 211.519 1389.33 220C1391.21 225.59 1392.45 232.25 1396 237C1403.81 219.35 1402 198.825 1402 180C1400.45 183.698 1401 188.017 1401 192C1389.9 184.177 1380.6 172.6 1371 163C1365.13 157.133 1360.77 151.104 1352 151z"/>
<path style="fill:#ffffff; stroke:none;" d="M1498.09 152.137C1493.81 153.949 1487.3 162.633 1485.92 166.996C1484.94 170.059 1487.22 174.045 1490.83 172.744C1495.07 171.215 1502.43 161.274 1503.63 157.015C1504.59 153.614 1501.38 150.74 1498.09 152.137z"/>
<path style="fill:#ffc084; stroke:none;" d="M1238 152L1239 153L1238 152z"/>
<path style="fill:#ffdcbb; stroke:none;" d="M1258 152L1259 153L1258 152z"/>
<path style="fill:#ffc597; stroke:none;" d="M1352 152L1353 153L1352 152z"/>
<path style="fill:#ffaa59; stroke:none;" d="M1237 154L1238 155L1237 154z"/>
<path style="fill:#ffd3aa; stroke:none;" d="M1257 154L1258 155L1257 154z"/>
<path style="fill:#ffd1ab; stroke:none;" d="M1329 154L1330 155L1329 154z"/>
<path style="fill:#ffca9d; stroke:none;" d="M1330 155L1331 156L1330 155z"/>
<path style="fill:#ff8113; stroke:none;" d="M1257 156C1254.85 162.594 1252.89 169.101 1252 176C1262.12 176.328 1269.32 187.32 1276 194C1282.87 200.868 1289.8 210.162 1298 215.397C1302.4 218.208 1308.25 220.004 1313 222.454C1316.54 224.279 1319.12 226.915 1323 228C1318.03 220.938 1311.1 215.099 1305 209L1272 176L1281 176C1274.98 167.455 1266.77 159.855 1257 156z"/>
<path style="fill:#ffd0a9; stroke:none;" d="M1331 156L1332 157L1331 156z"/>
<path style="fill:#ffc893; stroke:none;" d="M1236 157L1237 158L1236 157z"/>
<path style="fill:#ffb672; stroke:none;" d="M1256 157L1257 158L1256 157z"/>
<path style="fill:#ffd7b5; stroke:none;" d="M1332 157L1333 158L1332 157z"/>
<path style="fill:#ffc99e; stroke:none;" d="M1356 157L1357 158L1356 157z"/>
<path style="fill:#ffb477; stroke:none;" d="M1357 158L1358 159L1357 158z"/>
<path style="fill:#ff8105; stroke:none;" d="M1078 167L1181 167L1213 167C1219.66 167 1226.49 166.449 1233 168L1235 159L1115 159L1090 159C1087.08 159 1082.06 158.091 1079.6 160.028C1077.63 161.585 1078.03 164.788 1078 167z"/>
<path style="fill:#ffb166; stroke:none;" d="M1235 159L1236 160L1235 159z"/>
<path style="fill:#ffdbbb; stroke:none;" d="M1255 159L1256 160L1255 159z"/>
<path style="fill:#ffdab8; stroke:none;" d="M1235 160L1236 161L1235 160z"/>
<path style="fill:#ffb169; stroke:none;" d="M1255 160L1256 161L1255 160z"/>
<path style="fill:#ffcaa1; stroke:none;" d="M1359 161L1360 162L1359 161z"/>
<path style="fill:#ffb166; stroke:none;" d="M1234 162L1235 163L1234 162z"/>
<path style="fill:#ffd7b2; stroke:none;" d="M1254 162L1255 163L1254 162z"/>
<path style="fill:#ffd9b5; stroke:none;" d="M1234 163L1235 164L1234 163z"/>
<path style="fill:#ffad60; stroke:none;" d="M1254 163L1255 164L1254 163z"/>
<path style="fill:#ff8005; stroke:none;" d="M1077 164C1076.62 167.214 1075.51 171.681 1077.94 174.397C1079.99 176.698 1084.25 175.999 1087 176L1112 176L1231 176L1232 167L1118 167L1091 167C1085.82 167 1080.97 167.793 1077 164z"/>
<path style="fill:#ffc69a; stroke:none;" d="M1361 164L1362 165L1361 164z"/>
<path style="fill:#ffaf62; stroke:none;" d="M1233 165L1234 166L1233 165z"/>
<path style="fill:#ffc188; stroke:none;" d="M1253 165L1253 168C1253.7 166.446 1253.7 166.554 1253 165z"/>
<path style="fill:#ffd8b3; stroke:none;" d="M1233 166L1234 167L1233 166z"/>
<path style="fill:#ff7f05; stroke:none;" d="M1399 167C1399.67 175.517 1402 183.404 1402 192L1442 192C1441.93 183.225 1439.69 174.707 1439 166C1426.09 168.397 1412.1 167 1399 167z"/>
<path style="fill:#ffb06f; stroke:none;" d="M1341 167L1342 168L1341 167z"/>
<path style="fill:#ffc292; stroke:none;" d="M1363 167L1364 168L1363 167z"/>
<path style="fill:#ffad60; stroke:none;" d="M1232 168L1233 169L1232 168z"/>
<path style="fill:#ffc291; stroke:none;" d="M1342 168L1343 169L1342 168z"/>
<path style="fill:#ffc085; stroke:none;" d="M1252 170L1252 173C1252.7 171.446 1252.7 171.554 1252 170z"/>
<path style="fill:#ffbe8b; stroke:none;" d="M1365 170L1366 171L1365 170z"/>
<path style="fill:#f37004; stroke:none;" d="M1076 171C1073.21 182.342 1072.72 194.393 1071.91 206C1069.99 233.331 1070 260.554 1070 288C1071.88 283.531 1071 277.809 1071 273L1071 244L1093 244C1091.92 231.586 1086 219.212 1083.36 207C1081.73 199.425 1080.03 191.64 1078.75 184C1078.02 179.596 1078.12 174.989 1076 171z"/>
<path style="fill:#ffc79a; stroke:none;" d="M1344 171L1345 172L1344 171z"/>
<path style="fill:#040270; stroke:none;" d="M146 182C145.333 179.596 144.713 176.547 142.501 175.028C140.434 173.608 137.369 174.005 135 174L117 174L117 342C128.12 341.908 138.931 338.475 150 338L150 290C155.466 292.051 161.167 292.971 167 292.999C171.799 293.022 176.359 292.929 181 291.561C209.304 283.216 204 248.996 204 226C204 212.498 206.139 196.099 198.786 184C187.7 165.756 159.94 170.15 146 182M248 182C247.238 179.69 246.619 176.515 244.49 175.028C242.444 173.598 239.353 174.005 237 174L219 174L219 342C230.119 341.908 240.916 338.476 252 338L252 290C257.466 292.051 263.167 292.971 269 292.999C273.794 293.022 278.366 292.941 283 291.56C311.013 283.211 306 248.807 306 226C306 212.788 307.957 195.806 300.786 184C289.704 165.753 261.937 170.152 248 182M323 177C323.808 183.358 324.975 189.708 326.197 196C326.606 198.106 326.659 201.561 328.6 202.933C331.217 204.783 336.211 202.569 339 202.004C349.02 199.974 365.025 196.865 366.815 211C367.272 214.608 367 218.37 367 222C354.069 222 338.138 219.496 327.015 227.638C312.118 238.542 312.476 271.901 324.213 284.957C335.786 297.829 358.273 294.526 370 284C370.876 286.065 371.696 288.626 373.638 289.974C375.894 291.539 379.412 290.999 382 291L400 291C400 264.667 400.042 238.333 400 212C399.98 199.825 397.963 184.972 386.961 177.711C368.377 165.446 342.824 174.085 323 177M560 287C559.333 278.565 556.67 270.417 556 262C543.154 262.56 516.436 274.542 511.684 255C510.735 251.097 511 246.984 511 243L560 243C560 225.858 563.705 203.575 555.095 188C542.8 165.759 502.541 166.65 487.329 185.001C481.395 192.159 479.81 200.084 478.715 209C477.736 216.974 478 224.971 478 233C478 252.113 476.448 275.538 495 287.046C514.31 299.023 539.786 291.634 560 287M640 290C637.899 281.179 638.594 271.696 636 263C627.664 264.553 617.094 267.23 610.109 260.772C605.311 256.337 605.01 250.104 605 244C604.985 234.736 604.409 225.24 605.09 216C605.417 211.563 606.634 206.74 610.214 203.803C617.474 197.847 627.704 200.437 636 202C638.594 193.304 637.899 183.821 640 175C623.512 171.599 601.457 168.023 587.001 179.39C580.655 184.381 576.375 191.236 574.378 199C571.867 208.766 572 218.991 572 229C572 248.159 569.923 270.995 586.004 284.787C600.284 297.035 623.247 293.456 640 290M729 287C728.33 278.585 725.67 270.415 725 262C712.24 262.556 685.285 274.544 680.533 255C679.597 251.151 680 246.931 680 243L729 243C729 225.858 732.705 203.575 724.095 188C711.86 165.868 670.996 166.513 655.927 185.17C650.559 191.817 648.788 199.77 647.718 208C646.684 215.96 647 223.981 647 232C647 251.289 644.915 275.6 664 287.07C683.59 298.844 708.545 291.689 729 287M774 182C773.643 179.641 773.386 176.598 771.297 175.028C769.152 173.416 765.506 174.001 763 174L745 174L745 291L777 291L777 220C777 211.829 776.338 198.485 788.995 200.607C797.657 202.059 795 215.791 795 222L795 291L828 291L828 223C828 211.503 829.886 198.093 826.426 187C821.744 171.992 804.372 169.455 791 173.44C784.813 175.284 779.582 178.905 774 182M977 172.464C972.608 173.24 968.049 174.441 964 176.324C941.982 186.563 943 210.327 943 231C943 242.93 941.511 256.551 945.548 268C953.124 289.484 977.319 296.039 998 292.385C1002.8 291.537 1007.64 290.416 1012 288.179C1032.83 277.496 1032 254.2 1032 234C1032 221.326 1033.28 207.029 1028.54 195C1020.63 174.951 996.591 169.002 977 172.464z"/>
<path style="fill:#ffbb79; stroke:none;" d="M1231 172L1232 173L1231 172z"/>
<path style="fill:#ffb983; stroke:none;" d="M1367 173L1368 174L1367 173z"/>
<path style="fill:#040270; stroke:none;" d="M415 174L415 291L448 291L448 211C456.808 210.231 465.037 206.386 474 206C473.78 195.341 472.088 184.665 472 174C461.6 174.453 452.792 179.358 445 186C444.736 182.773 444.531 178.084 442.146 175.603C440.147 173.524 436.612 174.005 434 174L415 174z"/>
<path style="fill:#ffcda4; stroke:none;" d="M1346 174L1347 175L1346 174z"/>
<path style="fill:#ffffff; stroke:none;" d="M53 175C52.2215 193.131 45.3748 210.844 45 229L63 229C62.4574 216.362 59.147 203.477 57.0802 191C56.2234 185.827 56.2402 179.212 53 175z"/>
<path style="fill:#ffc896; stroke:none;" d="M1251 175L1251 178C1251.7 176.446 1251.7 176.554 1251 175z"/>
<path style="fill:#ff7f05; stroke:none;" d="M1078 176C1078.03 178.212 1077.63 181.415 1079.6 182.972C1081.88 184.769 1086.3 184 1089 184L1113 184L1188 184C1200.51 184 1214.8 182.096 1227 185C1228.4 181.997 1229.49 179.28 1230 176L1078 176z"/>
<path style="fill:#ffc085; stroke:none;" d="M1230 176L1231 177L1230 176z"/>
<path style="fill:#ff7e0f; stroke:none;" d="M1252 176L1251 183C1263.46 191.774 1271.85 205.556 1284 214.682C1288.76 218.261 1295.57 218.046 1301 220.144C1310.56 223.836 1317.52 234.122 1319 244L1332 244C1327.81 238.048 1322.14 233.141 1317 228L1320 228C1314.41 220.32 1305.03 219.962 1298 214.682C1287.78 207.002 1279.04 196.039 1270 187C1264.38 181.377 1260.36 176.099 1252 176z"/>
<path style="fill:#ff8016; stroke:none;" d="M1272 176C1278.27 184.903 1287.31 192.307 1295 200C1303.39 208.387 1311.96 220.058 1322 226.397C1325.44 228.567 1329.48 227.274 1333 229.028C1336.01 230.526 1337.99 233.474 1341 234.972C1344.74 236.836 1349.93 236 1354 236C1350.26 230.707 1343.19 224.846 1337 222.603C1333.13 221.201 1329.56 222.346 1326 219.682C1315.05 211.474 1305.68 199.678 1296 190C1291.71 185.714 1286.82 178.752 1281 176.603C1278.24 175.586 1274.89 176 1272 176z"/>
<path style="fill:#ffb379; stroke:none;" d="M1369 176L1370 177L1369 176z"/>
<path style="fill:#ffd2ad; stroke:none;" d="M1348 177L1349 178L1348 177z"/>
<path style="fill:#ffa958; stroke:none;" d="M1251 178L1251 181C1251.7 179.446 1251.7 179.554 1251 178z"/>
<path style="fill:#ffbd8b; stroke:none;" d="M1370 178L1371 179L1370 178z"/>
<path style="fill:#ffa54f; stroke:none;" d="M1229 179L1230 180L1229 179z"/>
<path style="fill:#ffaf6d; stroke:none;" d="M1349 179L1350 180L1349 179z"/>
<path style="fill:#ffd1a5; stroke:none;" d="M1229 180L1230 181L1229 180z"/>
<path style="fill:#ffd7b7; stroke:none;" d="M1350 180L1351 181L1350 180z"/>
<path style="fill:#ffc598; stroke:none;" d="M1371 180L1372 181L1371 180z"/>
<path style="fill:#ffb477; stroke:none;" d="M1351 182L1352 183L1351 182z"/>
<path style="fill:#ffcca4; stroke:none;" d="M1372 182L1373 183L1372 182z"/>
<path style="fill:#ffbb7a; stroke:none;" d="M1227 183L1228 184L1227 183z"/>
<path style="fill:#ff7d0a; stroke:none;" d="M1251 183C1251 197.764 1253.12 211.435 1255 226C1268.08 225.729 1281.03 220.675 1294 219C1290.56 216.373 1286.41 216.057 1283 212.941C1276.07 206.612 1269.64 199.637 1263 193C1259.26 189.259 1255.83 185.253 1251 183z"/>
<path style="fill:#ff7e05; stroke:none;" d="M1079 184C1079.12 186.73 1079.5 189.314 1080 192L1174 192C1189.26 192 1207.14 189.461 1222 193C1223.56 190.022 1225.05 187.231 1226 184L1079 184z"/>
<path style="fill:#ffe7d2; stroke:none;" d="M1250.33 184.667C1250.28 184.722 1250.22 185.778 1250.67 185.333C1250.72 185.277 1250.78 184.222 1250.33 184.667z"/>
<path style="fill:#ffd3b2; stroke:none;" d="M1373 184L1374 185L1373 184z"/>
<path style="fill:#ffd8b4; stroke:none;" d="M1226 185L1227 186L1226 185z"/>
<path style="fill:#ffb981; stroke:none;" d="M1353 185L1354 186L1353 185z"/>
<path style="fill:#ffa754; stroke:none;" d="M1225 186L1226 187L1225 186z"/>
<path style="fill:#ffd8b5; stroke:none;" d="M1250 186L1250 195C1251.26 192.006 1251.26 188.994 1250 186z"/>
<path style="fill:#ffc58e; stroke:none;" d="M1224 188L1225 189L1224 188z"/>
<path style="fill:#ffbe8a; stroke:none;" d="M1355 188L1356 189L1355 188z"/>
<path style="fill:#ffb067; stroke:none;" d="M1222 191L1223 192L1222 191z"/>
<path style="fill:#ffd1ad; stroke:none;" d="M1357 191L1358 192L1357 191z"/>
<path style="fill:#ffb277; stroke:none;" d="M1377 191L1378 192L1377 191z"/>
<path style="fill:#ff7d05; stroke:none;" d="M1081 192C1081.12 194.73 1081.5 197.314 1082 200L1187 200C1197.12 200 1218 204.594 1221 192L1081 192z"/>
<path style="fill:#ff7c05; stroke:none;" d="M1402 192L1402 209L1443 209C1443 204.911 1444.5 196.985 1441.82 193.603C1439.71 190.936 1433.97 192 1431 192L1402 192z"/>
<path style="fill:#ffcea0; stroke:none;" d="M1221 193L1222 194L1221 193z"/>
<path style="fill:#ffc496; stroke:none;" d="M1358 193L1359 194L1358 193z"/>
<path style="fill:#ffb985; stroke:none;" d="M1378 193L1379 194L1378 193z"/>
<path style="fill:#ffeedf; stroke:none;" d="M1250 195L1250 201C1250.95 198.715 1250.95 197.285 1250 195z"/>
<path style="fill:#ffb77f; stroke:none;" d="M1359 195L1360 196L1359 195z"/>
<path style="fill:#ffbc88; stroke:none;" d="M1379 195L1380 196L1379 195z"/>
<path style="fill:#ffc086; stroke:none;" d="M1219 196L1220 197L1219 196z"/>
<path style="fill:#010101; stroke:none;" d="M1072 197L1073 198L1072 197z"/>
<path style="fill:#ffffff; stroke:none;" d="M511 219L530 219C530 214.191 531.195 207.416 528.821 203.058C525.8 197.513 516.706 196.995 513.089 202.228C509.932 206.797 511 213.755 511 219M680 219L699 219C699 214.191 700.195 207.416 697.821 203.058C694.533 197.022 684.774 197.204 681.457 203.109C678.941 207.585 680 214.054 680 219z"/>
<path style="fill:#ffd1a6; stroke:none;" d="M1217 199L1218 200L1217 199z"/>
<path style="fill:#ffffff; stroke:none;" d="M160 200.482C156.461 201.057 152.076 202.508 150.603 206.105C149.095 209.787 150 215.092 150 219L150 247C150 251.11 148.729 257.816 150.603 261.57C152.241 264.849 157.877 265.073 161 264.684C165.272 264.152 169.129 262.368 170.427 257.985C173.452 247.769 171 233.629 171 223C171 217.703 172.025 211.147 170.566 206.019C169.21 201.251 164.504 199.75 160 200.482M262 200.482C258.461 201.057 254.076 202.508 252.603 206.105C251.095 209.787 252 215.092 252 219L252 247C252 251.11 250.729 257.816 252.603 261.57C254.24 264.849 259.878 265.074 263 264.684C267.286 264.15 270.95 262.303 272.347 257.985C274.003 252.868 273 246.32 273 241L273 218C273 214.194 273.618 209.714 272.566 206.019C271.21 201.251 266.504 199.75 262 200.482M883.001 200.484C878.931 201.358 875.998 203.805 875.228 208.001C873.158 219.286 875 232.525 875 244C875 248.823 873.868 255.408 875.742 259.945C877.485 264.165 881.914 265.094 886 264.316C889.141 263.717 893.181 262.55 894.972 259.66C897.019 256.357 896 250.719 896 247L896 219C896 214.856 897.643 206.16 894.972 202.728C892.611 199.693 886.346 199.766 883.001 200.484M985 200.498C980.524 201.359 977.059 204.452 976.228 209C974.336 219.362 976 231.467 976 242C976 246.89 974.919 253.36 976.742 257.985C978.76 263.101 984.874 265.291 990 264.276C994.48 263.389 997.723 260.524 998.656 255.999C1000.77 245.742 999 233.464 999 223C999 218.012 999.971 211.744 998.107 207.015C996.094 201.911 990.205 199.496 985 200.498z"/>
<path style="fill:#ff7c05; stroke:none;" d="M1082 200C1082.56 203.025 1082.94 205.922 1083 209L1182 209C1193.83 209 1210.87 213.33 1216 200L1082 200z"/>
<path style="fill:#ffab5e; stroke:none;" d="M1216 200L1217 201L1216 200z"/>
<path style="fill:#ff8120; stroke:none;" d="M1319 200C1323.71 206.692 1330.22 212.221 1336 218C1339.03 221.029 1342.11 225.027 1346 226.972C1350.44 229.191 1355.66 226.865 1360 229.603C1368.77 235.14 1374.49 245.003 1383 251C1382.39 246.477 1381.47 241.166 1378.91 237.285C1371.95 226.702 1357.88 222.545 1348 215.455C1342.16 211.266 1337.86 203.134 1331 200.603C1327.42 199.284 1322.76 200 1319 200z"/>
<path style="fill:#ffd4b2; stroke:none;" d="M1362 200L1363 201L1362 200z"/>
<path style="fill:#ffcaa3; stroke:none;" d="M1381 200L1382 201L1381 200z"/>
<path style="fill:#ffa14a; stroke:none;" d="M1251.33 202.667C1251.28 202.722 1251.22 203.778 1251.67 203.333C1251.72 203.278 1251.78 202.222 1251.33 202.667z"/>
<path style="fill:#ffc79b; stroke:none;" d="M1363 202L1364 203L1363 202z"/>
<path style="fill:#ffb884; stroke:none;" d="M1382 202L1383 203L1382 202z"/>
<path style="fill:#ffbb7d; stroke:none;" d="M1214 203L1215 204L1214 203z"/>
<path style="fill:#ffbf83; stroke:none;" d="M1251.33 204.667C1251.28 204.722 1251.22 205.778 1251.67 205.333C1251.72 205.278 1251.78 204.222 1251.33 204.667z"/>
<path style="fill:#ffba84; stroke:none;" d="M1364 204L1365 205L1364 204z"/>
<path style="fill:#010101; stroke:none;" d="M1443 205L1444 206L1443 205z"/>
<path style="fill:#ffcc9d; stroke:none;" d="M1212 206L1213 207L1212 206z"/>
<path style="fill:#ffdcbc; stroke:none;" d="M1251.33 206.667C1251.28 206.722 1251.22 207.778 1251.67 207.333C1251.72 207.278 1251.78 206.222 1251.33 206.667z"/>
<path style="fill:#ffad6e; stroke:none;" d="M1365 206L1366 207L1365 206z"/>
<path style="fill:#ff7b05; stroke:none;" d="M1443 206C1440.52 209.829 1436.21 209 1432 209L1402 209C1401.02 214.257 1400.42 219.672 1400 225C1400.68 223.752 1400.75 223.452 1401 222L1444 222C1444 216.91 1444.98 210.724 1443 206z"/>
<path style="fill:#ffa655; stroke:none;" d="M1211 207L1212 208L1211 207z"/>
<path style="fill:#ffc89f; stroke:none;" d="M1384 207L1385 208L1384 207z"/>
<path style="fill:#ff7b05; stroke:none;" d="M1084 209C1084.47 211.254 1084.76 214.445 1086.73 215.972C1088.83 217.6 1092.53 216.999 1095 217L1114 217L1172 217C1182.36 217 1193.88 215.591 1204 218L1210 209L1084 209z"/>
<path style="fill:#ffdbbb; stroke:none;" d="M1210 209L1211 210L1210 209z"/>
<path style="fill:#ffd6b8; stroke:none;" d="M1367 209L1368 210L1367 209z"/>
<path style="fill:#ffb680; stroke:none;" d="M1385 209L1386 210L1385 209z"/>
<path style="fill:#ffb777; stroke:none;" d="M1209 210L1210 211L1209 210z"/>
<path style="fill:#ff9f49; stroke:none;" d="M1208 211L1209 212L1208 211z"/>
<path style="fill:#ffa452; stroke:none;" d="M1252 211L1252 214C1252.7 212.446 1252.7 212.554 1252 211z"/>
<path style="fill:#ffcaa1; stroke:none;" d="M1368 211L1369 212L1368 211z"/>
<path style="fill:#ffd7ba; stroke:none;" d="M1386 212L1387 213L1386 212z"/>
<path style="fill:#ffcda7; stroke:none;" d="M1369 213L1370 214L1369 213z"/>
<path style="fill:#ffdaba; stroke:none;" d="M1206 214L1207 215L1206 214z"/>
<path style="fill:#ffc59a; stroke:none;" d="M1387 214L1388 215L1387 214z"/>
<path style="fill:#ffc592; stroke:none;" d="M1205 215L1206 216L1205 215z"/>
<path style="fill:#ffd5b4; stroke:none;" d="M1370 215L1371 216L1370 215z"/>
<path style="fill:#ffae66; stroke:none;" d="M1204 216L1205 217L1204 216z"/>
<path style="fill:#ff7a05; stroke:none;" d="M1086 217L1087 222L1174 222C1182.17 222 1198.75 225.426 1203 217L1086 217z"/>
<path style="fill:#ffba7d; stroke:none;" d="M1253 217L1253 220C1253.7 218.446 1253.7 218.554 1253 217z"/>
<path style="fill:#ffcfab; stroke:none;" d="M1388 217L1389 218L1388 217z"/>
<path style="fill:#ffcb9e; stroke:none;" d="M1290.67 219.333C1290.22 219.778 1291.28 219.722 1291.33 219.667C1291.78 219.222 1290.72 219.278 1290.67 219.333z"/>
<path style="fill:#ffc08a; stroke:none;" d="M1298.67 219.333C1298.22 219.778 1299.28 219.722 1299.33 219.667C1299.78 219.222 1298.72 219.278 1298.67 219.333z"/>
<path style="fill:#ff7a04; stroke:none;" d="M1444 219C1441.38 223.037 1436.39 222 1432 222L1401 222C1399.51 226.662 1397.72 231.132 1397 236L1445 236C1445 230.638 1446.09 223.974 1444 219z"/>
<path style="fill:#ffd4af; stroke:none;" d="M1201 220L1202 221L1201 220z"/>
<path style="fill:#ffc696; stroke:none;" d="M1285.67 220.333C1285.22 220.778 1286.28 220.722 1286.33 220.667C1286.78 220.222 1285.72 220.278 1285.67 220.333z"/>
<path style="fill:#ffae6a; stroke:none;" d="M1302 220L1303 221L1302 220z"/>
<path style="fill:#ffa866; stroke:none;" d="M1372 220L1373 221L1372 220z"/>
<path style="fill:#ffceaa; stroke:none;" d="M1389 220L1390 221L1389 220z"/>
<path style="fill:#ffbe84; stroke:none;" d="M1200 221L1201 222L1200 221z"/>
<path style="fill:#ffc28d; stroke:none;" d="M1280.67 221.333C1280.22 221.778 1281.28 221.722 1281.33 221.667C1281.78 221.222 1280.72 221.278 1280.67 221.333z"/>
<path style="fill:#ffa457; stroke:none;" d="M1304 221L1305 222L1304 221z"/>
<path style="fill:#ff7a04; stroke:none;" d="M1087 222C1090 231.254 1102.94 228 1111 228L1176 228C1184.26 228 1194.85 230.767 1199 222L1087 222z"/>
<path style="fill:#ffa759; stroke:none;" d="M1199 222L1200 223L1199 222z"/>
<path style="fill:#ffbf86; stroke:none;" d="M1254.33 222.667C1254.28 222.722 1254.22 223.778 1254.67 223.333C1254.72 223.278 1254.78 222.222 1254.33 222.667z"/>
<path style="fill:#ffbc81; stroke:none;" d="M1275 222C1276.25 222.685 1276.55 222.749 1278 223C1276.75 222.315 1276.45 222.251 1275 222z"/>
<path style="fill:#ffd3ae; stroke:none;" d="M1305 222L1306 223L1305 222z"/>
<path style="fill:#ffb175; stroke:none;" d="M1373 222L1374 223L1373 222z"/>
<path style="fill:#ffb878; stroke:none;" d="M1270 223C1271.25 223.685 1271.55 223.749 1273 224C1271.75 223.315 1271.45 223.251 1270 223z"/>
<path style="fill:#ffcda7; stroke:none;" d="M1390 223L1391 224L1390 223z"/>
<path style="fill:#ffb370; stroke:none;" d="M1265 224C1266.25 224.685 1266.55 224.749 1268 225C1266.75 224.315 1266.45 224.251 1265 224z"/>
<path style="fill:#ffaa61; stroke:none;" d="M1308 224L1309 225L1308 224z"/>
<path style="fill:#ffc79c; stroke:none;" d="M1374 224L1375 225L1374 224z"/>
<path style="fill:#ffc99a; stroke:none;" d="M1261.67 225.333C1261.22 225.778 1262.28 225.722 1262.33 225.667C1262.78 225.222 1261.72 225.278 1261.67 225.333z"/>
<path style="fill:#ffba80; stroke:none;" d="M1309 225L1310 226L1309 225z"/>
<path style="fill:#ffaa5e; stroke:none;" d="M1255.67 226.333C1255.22 226.778 1256.28 226.722 1256.33 226.667C1256.78 226.222 1255.72 226.278 1255.67 226.333z"/>
<path style="fill:#ffe0c5; stroke:none;" d="M1257.67 226.333C1257.22 226.778 1258.28 226.722 1258.33 226.667C1258.78 226.222 1257.72 226.278 1257.67 226.333z"/>
<path style="fill:#ffb576; stroke:none;" d="M1310 226L1311 227L1310 226z"/>
<path style="fill:#ffcca6; stroke:none;" d="M1391 226L1392 227L1391 226z"/>
<path style="fill:#ffa75c; stroke:none;" d="M1311 227L1312 228L1311 227z"/>
<path style="fill:#ffaa68; stroke:none;" d="M1375 227L1376 228L1375 227z"/>
<path style="fill:#ff7904; stroke:none;" d="M1089 228C1090.72 239.396 1102.95 236 1112 236L1170 236C1179.45 236 1188.31 238.056 1193 228L1089 228z"/>
<path style="fill:#ff7a15; stroke:none;" d="M1317 228C1321.19 233.952 1326.86 238.859 1332 244L1327 244C1330.85 249.472 1337.56 258.02 1344 260.397C1347.86 261.821 1352.22 260.14 1356 262.028C1362.95 265.5 1365.65 274.057 1373.86 267.562C1375.19 266.515 1375.99 265.321 1377 264C1373.5 262.076 1369.29 261.497 1366 259.397C1360.37 255.805 1355.7 249.702 1351 245C1345.93 239.933 1339.86 231.132 1333 228.603C1328.36 226.893 1321.89 228 1317 228z"/>
<path style="fill:#ff7d19; stroke:none;" d="M1347 228C1349.08 230.952 1351.46 233.436 1354 236L1342 236C1345.41 240.835 1349.82 244.824 1354 249L1359 253.999C1363.99 258.959 1381.78 270.187 1383.91 256C1384.64 251.204 1378.94 246.948 1376 244C1371.2 239.191 1365.51 231.004 1359 228.603C1355.42 227.284 1350.76 228 1347 228z"/>
<path style="fill:#ffbf8e; stroke:none;" d="M1376 229L1377 230L1376 229z"/>
<path style="fill:#ffcba4; stroke:none;" d="M1392 229L1393 230L1392 229z"/>
<path style="fill:#ffd1aa; stroke:none;" d="M1313 230L1314 231L1313 230z"/>
<path style="fill:#ffa85e; stroke:none;" d="M1314 231L1315 232L1314 231z"/>
<path style="fill:#ffd5b6; stroke:none;" d="M1377 231L1378 232L1377 231z"/>
<path style="fill:#ffc9a1; stroke:none;" d="M1393 232L1394 233L1393 232z"/>
<path style="fill:#ffcfa6; stroke:none;" d="M1297 233C1298.25 233.685 1298.55 233.749 1300 234C1298.75 233.315 1298.45 233.251 1297 233z"/>
<path style="fill:#ffc28f; stroke:none;" d="M1315 233L1316 234L1315 233z"/>
<path style="fill:#ffdaba; stroke:none;" d="M1188 234L1189 235L1188 234z"/>
<path style="fill:#ff7807; stroke:none;" d="M1296.43 235.047C1290.33 238.896 1297.88 254.962 1304.57 250.928C1311.15 246.954 1303.32 230.707 1296.43 235.047z"/>
<path style="fill:#ffd1aa; stroke:none;" d="M1301 234L1302 235L1301 234z"/>
<path style="fill:#ffc79d; stroke:none;" d="M1378 234L1379 235L1378 234z"/>
<path style="fill:#ffd7b4; stroke:none;" d="M1187 235L1188 236L1187 235z"/>
<path style="fill:#ffa457; stroke:none;" d="M1302 235L1303 236L1302 235z"/>
<path style="fill:#ffc594; stroke:none;" d="M1316 235L1317 236L1316 235z"/>
<path style="fill:#ffc8a0; stroke:none;" d="M1394 235L1395 236L1394 235z"/>
<path style="fill:#ff7804; stroke:none;" d="M1091 236C1091.85 238.673 1092.59 241.225 1093 244L1160 244C1169.64 244 1179.86 246.156 1185 236L1091 236z"/>
<path style="fill:#ffd6b3; stroke:none;" d="M1186 236L1187 237L1186 236z"/>
<path style="fill:#ffc491; stroke:none;" d="M1294 236L1295 237L1294 236z"/>
<path style="fill:#ffab64; stroke:none;" d="M1303 236L1304 237L1303 236z"/>
<path style="fill:#ff7704; stroke:none;" d="M1396 236C1396.02 241.793 1396.93 247.319 1398 253L1445 253L1445 236L1396 236z"/>
<path style="fill:#ffc390; stroke:none;" d="M1304 237L1305 238L1304 237z"/>
<path style="fill:#ffb476; stroke:none;" d="M1317 237L1318 238L1317 237z"/>
<path style="fill:#ffc194; stroke:none;" d="M1379 237L1380 238L1379 237z"/>
<path style="fill:#ffac6a; stroke:none;" d="M1395 237L1395 240C1395.7 238.446 1395.7 238.554 1395 237z"/>
<path style="fill:#ffa75e; stroke:none;" d="M1305 239L1306 240L1305 239z"/>
<path style="fill:#ffa95f; stroke:none;" d="M1181 240L1182 241L1181 240z"/>
<path style="fill:#ffdec3; stroke:none;" d="M1318.33 240.667C1318.28 240.722 1318.22 241.778 1318.67 241.333C1318.72 241.277 1318.78 240.222 1318.33 240.667z"/>
<path style="fill:#ffbc89; stroke:none;" d="M1380 240L1381 241L1380 240z"/>
<path style="fill:#ffe8d5; stroke:none;" d="M1395.33 240.667C1395.28 240.722 1395.22 241.778 1395.67 241.333C1395.72 241.277 1395.78 240.222 1395.33 240.667z"/>
<path style="fill:#ffba80; stroke:none;" d="M1180 241L1181 242L1180 241z"/>
<path style="fill:#ffb270; stroke:none;" d="M1306 241L1307 242L1306 241z"/>
<path style="fill:#ffcca0; stroke:none;" d="M1179 242L1180 243L1179 242z"/>
<path style="fill:#ffc08a; stroke:none;" d="M1294.33 242.667C1294.28 242.722 1294.22 243.778 1294.67 243.333C1294.72 243.278 1294.78 242.222 1294.33 242.667z"/>
<path style="fill:#ffdbbd; stroke:none;" d="M1178 243L1179 244L1178 243z"/>
<path style="fill:#ffbf8e; stroke:none;" d="M1381 243L1382 244L1381 243z"/>
<path style="fill:#f36d03; stroke:none;" d="M1071 244L1071 269L1102 269C1100.7 260.339 1095.97 252.529 1094 244L1071 244z"/>
<path style="fill:#ff7704; stroke:none;" d="M1094 244C1094.87 249.918 1097.63 255.212 1099 261L1135 261C1140.34 261 1146.8 262.091 1152 261.015C1159.62 259.441 1172.12 250.604 1176 244L1094 244z"/>
<path style="fill:#ffc89a; stroke:none;" d="M1307 244L1307 247C1307.7 245.446 1307.7 245.554 1307 244z"/>
<path style="fill:#ffcea6; stroke:none;" d="M1319 244L1319 251C1320.06 248.466 1320.06 246.534 1319 244z"/>
<path style="fill:#ff770d; stroke:none;" d="M1320 244C1320 247.002 1320.13 250.05 1319.47 253C1318.89 255.6 1317.28 258.298 1318.24 261C1319.36 264.157 1322.71 266.699 1325 269L1322 269C1325.31 273.692 1331.22 281.656 1337 283.227C1340.1 284.07 1344.05 282.735 1347 281.819C1354.5 279.493 1361.45 276.323 1368 272C1364.69 268.416 1360.68 263.328 1356 261.603C1351.72 260.025 1347.07 261.969 1343 259.397C1334.5 254.032 1331.09 244.131 1320 244z"/>
<path style="fill:#ffb678; stroke:none;" d="M1396 244L1396 247C1396.7 245.446 1396.7 245.554 1396 244z"/>
<path style="fill:#ffa458; stroke:none;" d="M1295 245L1296 246L1295 245z"/>
<path style="fill:#010101; stroke:none;" d="M1445 245L1446 246L1445 245z"/>
<path style="fill:#ffa04f; stroke:none;" d="M1174 246L1175 247L1174 246z"/>
<path style="fill:#ffae72; stroke:none;" d="M1382.33 246.667C1382.28 246.722 1382.22 247.778 1382.67 247.333C1382.72 247.278 1382.78 246.222 1382.33 246.667z"/>
<path style="fill:#ff7604; stroke:none;" d="M1445 246L1445 253L1398 253C1398.67 258.33 1399.77 263.626 1400 269L1446 269C1446 262.032 1447.7 252.445 1445 246z"/>
<path style="fill:#ffb77b; stroke:none;" d="M1173 247L1174 248L1173 247z"/>
<path style="fill:#ffa04e; stroke:none;" d="M1296 247L1297 248L1296 247z"/>
<path style="fill:#ffffff; stroke:none;" d="M367 248C362.952 248 358.01 247.247 354.105 248.434C348.247 250.214 347.704 259.329 351.009 263.606C353.339 266.621 357.439 267.227 360.995 266.691C362.759 266.426 364.846 265.957 365.972 264.436C368.635 260.84 367 252.303 367 248z"/>
<path style="fill:#ffa456; stroke:none;" d="M1170 249L1171 250L1170 249z"/>
<path style="fill:#ff9d4a; stroke:none;" d="M1306 249L1307 250L1306 249z"/>
<path style="fill:#ffc99c; stroke:none;" d="M1169 250L1170 251L1169 250z"/>
<path style="fill:#ff9e55; stroke:none;" d="M1383.33 250.667C1383.28 250.722 1383.22 251.778 1383.67 251.333C1383.72 251.278 1383.78 250.222 1383.33 250.667z"/>
<path style="fill:#ffad68; stroke:none;" d="M1397 250L1397 253C1397.7 251.446 1397.7 251.554 1397 250z"/>
<path style="fill:#ffb16e; stroke:none;" d="M1300 251L1301 252L1300 251z"/>
<path style="fill:#ffd4b0; stroke:none;" d="M1305 251L1306 252L1305 251z"/>
<path style="fill:#ffae6b; stroke:none;" d="M1319 251L1319 254C1319.7 252.446 1319.7 252.554 1319 251z"/>
<path style="fill:#ffb77a; stroke:none;" d="M1166 252L1167 253L1166 252z"/>
<path style="fill:#ffdec3; stroke:none;" d="M1302.67 252.333C1302.22 252.778 1303.28 252.722 1303.33 252.667C1303.78 252.222 1302.72 252.278 1302.67 252.333z"/>
<path style="fill:#ffc69b; stroke:none;" d="M1384 253L1384 256C1384.7 254.446 1384.7 254.554 1384 253z"/>
<path style="fill:#ffa356; stroke:none;" d="M1163 254L1164 255L1163 254z"/>
<path style="fill:#ffc99c; stroke:none;" d="M1162 255L1163 256L1162 255z"/>
<path style="fill:#ffd9b9; stroke:none;" d="M1318 255L1319 256L1318 255z"/>
<path style="fill:#ffaf6d; stroke:none;" d="M1318 256L1319 257L1318 256z"/>
<path style="fill:#ffa458; stroke:none;" d="M1398.33 256.667C1398.28 256.722 1398.22 257.778 1398.67 257.333C1398.72 257.278 1398.78 256.222 1398.33 256.667z"/>
<path style="fill:#ffc492; stroke:none;" d="M1159 257L1160 258L1159 257z"/>
<path style="fill:#ff7304; stroke:none;" d="M1384 257C1374.19 266.807 1364.22 275.348 1351 280.139C1347 281.587 1341.28 284.297 1337 282.686C1331.27 280.528 1326.25 273.254 1322 269L1325 269C1322.5 265.458 1319.95 262.841 1316 261C1310.92 268.154 1303.17 272.222 1296 277C1292.44 279.371 1288.33 281.37 1286 285L1387 285C1387 276.473 1388.53 264.554 1384 257z"/>
<path style="fill:#ffaf6c; stroke:none;" d="M1157 258L1158 259L1157 258z"/>
<path style="fill:#ffd2ac; stroke:none;" d="M1317 258L1318 259L1317 258z"/>
<path style="fill:#ffbc83; stroke:none;" d="M1385.33 258.667C1385.28 258.722 1385.22 259.778 1385.67 259.333C1385.72 259.278 1385.78 258.222 1385.33 258.667z"/>
<path style="fill:#ffcfa7; stroke:none;" d="M1398 258L1398 261C1398.7 259.446 1398.7 259.554 1398 258z"/>
<path style="fill:#ff9a45; stroke:none;" d="M1155 259L1156 260L1155 259z"/>
<path style="fill:#ffd5b2; stroke:none;" d="M1154 260L1155 261L1154 260z"/>
<path style="fill:#ffc595; stroke:none;" d="M1316 260L1317 261L1316 260z"/>
<path style="fill:#ff7404; stroke:none;" d="M1100 261C1102.27 270.794 1107.38 279.672 1111 289C1115.85 283.553 1119.41 278.025 1126 274.349C1133.95 269.919 1144.96 268.042 1151 261L1100 261z"/>
<path style="fill:#ffbf8a; stroke:none;" d="M1152 261L1153 262L1152 261z"/>
<path style="fill:#ffaa64; stroke:none;" d="M1150 262L1151 263L1150 262z"/>
<path style="fill:#ffa45a; stroke:none;" d="M1315 262L1316 263L1315 262z"/>
<path style="fill:#ffb87e; stroke:none;" d="M1314 263L1315 264L1314 263z"/>
<path style="fill:#ffd1ab; stroke:none;" d="M1386.33 263.667C1386.28 263.722 1386.22 264.778 1386.67 264.333C1386.72 264.278 1386.78 263.222 1386.33 263.667z"/>
<path style="fill:#ffa963; stroke:none;" d="M1399.33 263.667C1399.28 263.722 1399.22 264.778 1399.67 264.333C1399.72 264.278 1399.78 263.222 1399.33 263.667z"/>
<path style="fill:#ffcea6; stroke:none;" d="M1147 264L1148 265L1147 264z"/>
<path style="fill:#ffcda4; stroke:none;" d="M1313 264L1314 265L1313 264z"/>
<path style="fill:#ffbf8a; stroke:none;" d="M1145 265L1146 266L1145 265z"/>
<path style="fill:#ffac68; stroke:none;" d="M1386 265L1386 268C1386.7 266.446 1386.7 266.554 1386 265z"/>
<path style="fill:#ffc08d; stroke:none;" d="M1399.33 265.667C1399.28 265.722 1399.22 266.778 1399.67 266.333C1399.72 266.278 1399.78 265.222 1399.33 265.667z"/>
<path style="fill:#ffcca2; stroke:none;" d="M1143 266L1144 267L1143 266z"/>
<path style="fill:#ffc697; stroke:none;" d="M1311 266L1312 267L1311 266z"/>
<path style="fill:#ff9d4c; stroke:none;" d="M1140 267L1141 268L1140 267z"/>
<path style="fill:#ffdbbe; stroke:none;" d="M1141 267L1142 268L1141 267z"/>
<path style="fill:#ffaa65; stroke:none;" d="M1310 267L1311 268L1310 267z"/>
<path style="fill:#ffd7b7; stroke:none;" d="M1399.33 267.667C1399.28 267.722 1399.22 268.778 1399.67 268.333C1399.72 268.278 1399.78 267.222 1399.33 267.667z"/>
<path style="fill:#ffab66; stroke:none;" d="M1138 268L1139 269L1138 268z"/>
<path style="fill:#f36a03; stroke:none;" d="M1071 269L1071 305C1072.44 301.568 1072 297.7 1072 294L1110 294C1111.22 287.09 1108.64 282.215 1105.86 276.001C1104.85 273.738 1104.03 270.756 1101.61 269.603C1098.91 268.323 1094.9 269 1092 269L1071 269z"/>
<path style="fill:#ffb880; stroke:none;" d="M1136 269L1137 270L1136 269z"/>
<path style="fill:#ffcba2; stroke:none;" d="M1307 269L1308 270L1307 269z"/>
<path style="fill:#ff7304; stroke:none;" d="M1400 269C1400.66 277.319 1401.98 285.642 1402 294L1444 294C1445.06 285.644 1445 277.421 1445 269L1400 269z"/>
<path style="fill:#ab5601; stroke:none;" d="M1445 269L1446 270L1445 269z"/>
<path style="fill:#ffc79a; stroke:none;" d="M1134 270L1135 271L1134 270z"/>
<path style="fill:#ff9b4a; stroke:none;" d="M1306 270L1307 271L1306 270z"/>
<path style="fill:#ffdec4; stroke:none;" d="M1387 270L1387 273C1387.7 271.446 1387.7 271.554 1387 270z"/>
<path style="fill:#ffd4b2; stroke:none;" d="M1132 271L1133 272L1132 271z"/>
<path style="fill:#ffc392; stroke:none;" d="M1304 271L1305 272L1304 271z"/>
<path style="fill:#ffa45a; stroke:none;" d="M1129 272L1130 273L1129 272z"/>
<path style="fill:#ffb070; stroke:none;" d="M1127 273L1128 274L1127 273z"/>
<path style="fill:#ffba82; stroke:none;" d="M1301 273L1302 274L1301 273z"/>
<path style="fill:#ffbc85; stroke:none;" d="M1387 273L1387 278C1387.83 275.97 1387.83 275.03 1387 273z"/>
<path style="fill:#ff923a; stroke:none;" d="M1400.33 273.667C1400.28 273.722 1400.22 274.778 1400.67 274.333C1400.72 274.278 1400.78 273.222 1400.33 273.667z"/>
<path style="fill:#ffba82; stroke:none;" d="M1125 274L1126 275L1125 274z"/>
<path style="fill:#ffbc85; stroke:none;" d="M1123 275L1124 276L1123 275z"/>
<path style="fill:#ffb274; stroke:none;" d="M1298 275L1299 276L1298 275z"/>
<path style="fill:#ffa964; stroke:none;" d="M1400.33 275.667C1400.28 275.722 1400.22 276.778 1400.67 276.333C1400.72 276.278 1400.78 275.222 1400.33 275.667z"/>
<path style="fill:#ffd9bb; stroke:none;" d="M1122 276L1123 277L1122 276M1296 276L1297 277L1296 276z"/>
<path style="fill:#ffa964; stroke:none;" d="M1295 277L1296 278L1295 277z"/>
<path style="fill:#ffc08e; stroke:none;" d="M1400 277L1400 280C1400.7 278.446 1400.7 278.554 1400 277z"/>
<path style="fill:#ffa55d; stroke:none;" d="M1119 278L1120 279L1119 278z"/>
<path style="fill:#ffd1ac; stroke:none;" d="M1293 278L1294 279L1293 278z"/>
<path style="fill:#ffa65f; stroke:none;" d="M1387 278L1387 285C1388.06 282.466 1388.06 280.534 1387 278z"/>
<path style="fill:#ffc18f; stroke:none;" d="M1118 279L1119 280L1118 279z"/>
<path style="fill:#ff9f53; stroke:none;" d="M1292 279L1293 280L1292 279z"/>
<path style="fill:#ffbb85; stroke:none;" d="M1117 280L1118 281L1117 280z"/>
<path style="fill:#ffc99e; stroke:none;" d="M1290 280L1291 281L1290 280z"/>
<path style="fill:#ffe3cd; stroke:none;" d="M1400.33 280.667C1400.28 280.722 1400.22 281.778 1400.67 281.333C1400.72 281.278 1400.78 280.222 1400.33 280.667z"/>
<path style="fill:#ff9f52; stroke:none;" d="M1116 281L1117 282L1116 281z"/>
<path style="fill:#ff9845; stroke:none;" d="M1289 281L1290 282L1289 281z"/>
<path style="fill:#ffc08e; stroke:none;" d="M1287 282L1288 283L1287 282z"/>
<path style="fill:#ffd7b7; stroke:none;" d="M1285.33 283.667C1285.28 283.722 1285.22 284.778 1285.67 284.333C1285.72 284.278 1285.78 283.222 1285.33 283.667z"/>
<path style="fill:#ffd3b0; stroke:none;" d="M1114 284L1115 285L1114 284z"/>
<path style="fill:#ffaf70; stroke:none;" d="M1113 285L1114 286L1113 285z"/>
<path style="fill:#ffac6c; stroke:none;" d="M1286 285L1287 286L1286 285z"/>
<path style="fill:#ff7204; stroke:none;" d="M1287 285C1291.11 295.67 1299.21 294 1309 294L1365 294C1370 294 1375 294.09 1380 293.995C1381.98 293.958 1384.59 294.135 1385.97 292.397C1387.47 290.516 1386.99 287.232 1387 285L1287 285z"/>
<path style="fill:#ffcca5; stroke:none;" d="M1387 285L1387 290C1387.83 287.97 1387.83 287.03 1387 285z"/>
<path style="fill:#ffa866; stroke:none;" d="M1401 285L1401 300C1402.74 295.852 1402.74 289.148 1401 285z"/>
<path style="fill:#ffb47a; stroke:none;" d="M1112 287L1113 288L1112 287z"/>
<path style="fill:#ffb881; stroke:none;" d="M1288 288L1289 289L1288 288z"/>
<path style="fill:#fab17b; stroke:none;" d="M1111 289L1112 290L1111 289z"/>
<path style="fill:#ff7003; stroke:none;" d="M1444 290L1444 294L1402 294L1401 313L1443 313C1444.17 306.71 1446.46 295.92 1444 290z"/>
<path style="fill:#f9b27e; stroke:none;" d="M1110 291L1111 292L1110 291z"/>
<path style="fill:#ffc597; stroke:none;" d="M1290 291L1291 292L1290 291z"/>
<path style="fill:#ff9a4b; stroke:none;" d="M1291 292L1292 293L1291 292z"/>
<path style="fill:#ffa866; stroke:none;" d="M1386 293L1386 296C1386.7 294.446 1386.7 294.554 1386 293z"/>
<path style="fill:#f36702; stroke:none;" d="M1072 294L1073 327C1073.87 324.948 1073.95 323.253 1074 321L1109 321C1106.98 311.185 1107.73 303.819 1109 294L1072 294z"/>
<path style="fill:#f8ac75; stroke:none;" d="M1109 294L1110 295L1109 294z"/>
<path style="fill:#ffd0ad; stroke:none;" d="M1292 294L1293 295L1292 294z"/>
<path style="fill:#ff7104; stroke:none;" d="M1293 294C1295.1 298.41 1298.1 302.089 1301 306C1308.42 304.233 1316.41 305 1324 305L1363 305C1368 305 1373 305.09 1378 304.995C1380.04 304.957 1382.54 305.103 1384.01 303.397C1386 301.088 1385.88 296.857 1386 294L1293 294z"/>
<path style="fill:#ffa661; stroke:none;" d="M1293 295L1294 296L1293 295z"/>
<path style="fill:#ffe2cb; stroke:none;" d="M1386.33 296.667C1386.28 296.722 1386.22 297.778 1386.67 297.333C1386.72 297.278 1386.78 296.222 1386.33 296.667z"/>
<path style="fill:#f79b57; stroke:none;" d="M1108 297L1109 298L1108 297z"/>
<path style="fill:#fde5d4; stroke:none;" d="M1108.33 298.667C1108.28 298.722 1108.22 299.778 1108.67 299.333C1108.72 299.278 1108.78 298.222 1108.33 298.667z"/>
<path style="fill:#ffb277; stroke:none;" d="M1295 298L1296 299L1295 298z"/>
<path style="fill:#ffb57d; stroke:none;" d="M1385.33 299.667C1385.28 299.722 1385.22 300.778 1385.67 300.333C1385.72 300.278 1385.78 299.222 1385.33 299.667z"/>
<path style="fill:#ff8425; stroke:none;" d="M1401 300L1401 304C1401.71 302.24 1401.71 301.76 1401 300z"/>
<path style="fill:#ffd0ad; stroke:none;" d="M1297 301L1298 302L1297 301z"/>
<path style="fill:#f7954e; stroke:none;" d="M1107.33 302.667C1107.28 302.722 1107.22 303.778 1107.67 303.333C1107.72 303.278 1107.78 302.222 1107.33 302.667z"/>
<path style="fill:#ffbb86; stroke:none;" d="M1298 302L1299 303L1298 302z"/>
<path style="fill:#ffa55f; stroke:none;" d="M1299 303L1300 304L1299 303z"/>
<path style="fill:#fac299; stroke:none;" d="M1107 304L1107 309C1107.83 306.97 1107.83 306.03 1107 304z"/>
<path style="fill:#ffceaa; stroke:none;" d="M1384.33 304.667C1384.28 304.722 1384.22 305.778 1384.67 305.333C1384.72 305.278 1384.78 304.222 1384.33 304.667z"/>
<path style="fill:#010101; stroke:none;" d="M1071 305L1072 306L1071 305z"/>
<path style="fill:#ff7003; stroke:none;" d="M1302 305C1306.5 315.089 1314.5 313 1324 313L1382 313L1384 305L1302 305z"/>
<path style="fill:#ffd7b8; stroke:none;" d="M1302 307L1303 308L1302 307z"/>
<path style="fill:#ff9a4e; stroke:none;" d="M1383 307L1384 308L1383 307z"/>
<path style="fill:#ffe5d1; stroke:none;" d="M1400 307L1400 310C1400.7 308.446 1400.7 308.554 1400 307z"/>
<path style="fill:#ffc294; stroke:none;" d="M1303 308L1304 309L1303 308z"/>
<path style="fill:#ffcca5; stroke:none;" d="M1383 308L1384 309L1383 308z"/>
<path style="fill:#f8a162; stroke:none;" d="M1107 309L1107 315C1107.95 312.715 1107.95 311.285 1107 309z"/>
<path style="fill:#ffac6c; stroke:none;" d="M1304 309L1305 310L1304 309z"/>
<path style="fill:#ff9849; stroke:none;" d="M1305 310L1306 311L1305 310z"/>
<path style="fill:#ffa158; stroke:none;" d="M1382 310L1383 311L1382 310z"/>
<path style="fill:#ffb176; stroke:none;" d="M1400 310L1400 313C1400.7 311.446 1400.7 311.554 1400 310z"/>
<path style="fill:#ffd2af; stroke:none;" d="M1382 311L1383 312L1382 311z"/>
<path style="fill:#ff5a01; stroke:none;" d="M785 403C776.98 404.494 766.113 407.319 759.105 401.57C755.096 398.282 754.28 393.837 753.579 389C752.116 378.897 752.196 367.109 753.576 357C754.218 352.298 754.469 347.826 758.214 344.394C765.515 337.703 776.324 340.904 785 342C785.711 332.986 787.612 324.04 788 315C770.36 311.361 749.204 308.44 734.039 320.681C728.108 325.469 724.14 332.636 722.428 340C720.3 349.156 721 358.663 721 368C721 385.526 717.883 406.607 730.329 420.96C740.575 432.776 756.611 433.338 771 432.985C775 432.887 784.325 432.83 786.958 429.272C788.432 427.28 787.399 424.22 787.166 422C786.5 415.67 785.5 409.34 785 403M831 312.439C826.243 313.182 821.38 314.287 817 316.324C795.126 326.496 796 350.428 796 371C796 382.974 794.572 396.491 798.545 408C805.924 429.375 829.466 435.634 850 432.7C854.35 432.078 858.967 430.866 863 429.12C885.24 419.496 885 395.638 885 375C885 362.312 886.285 348.144 881.91 336C874.492 315.412 850.774 309.351 831 312.439M929 322L927 314L899 314L899 431L932 431L932 361C932 353.306 930.518 338.836 942.985 340.954C951.578 342.414 949 355.826 949 362L949 431L982 431L982 361C982 353.623 980.207 339.593 991.996 340.762C1001.3 341.685 999 355.718 999 362L999 431L1032 431L1032 365C1032 352.704 1033.51 338.901 1029.78 327C1022.53 303.845 991.821 311.25 978 323C967.774 303.453 942.852 313.63 929 322z"/>
<path style="fill:#ff6f03; stroke:none;" d="M1309 313C1313.43 322.502 1320.99 321 1330 321C1345.26 321 1363.14 318.461 1378 322C1379.23 318.989 1380.43 316.208 1381 313L1309 313z"/>
<path style="fill:#ffa663; stroke:none;" d="M1381 313L1382 314L1381 313z"/>
<path style="fill:#ff6e03; stroke:none;" d="M1400 313C1399.6 322.098 1395.45 329.487 1393 338L1426 338C1430.72 338 1436.11 337.055 1440 340C1443.12 332.588 1442.98 321.048 1443 313L1400 313z"/>
<path style="fill:#ffcea9; stroke:none;" d="M1308 314L1309 315L1308 314z"/>
<path style="fill:#ffcda8; stroke:none;" d="M1309 315L1310 316L1309 315z"/>
<path style="fill:#ffcfab; stroke:none;" d="M1310 316L1311 317L1310 316z"/>
<path style="fill:#ffd5b5; stroke:none;" d="M1380 316L1381 317L1380 316z"/>
<path style="fill:#ffbe8d; stroke:none;" d="M1399 316L1399 319C1399.7 317.446 1399.7 317.554 1399 316z"/>
<path style="fill:#f89e5f; stroke:none;" d="M1108.33 317.667C1108.28 317.722 1108.22 318.778 1108.67 318.333C1108.72 318.278 1108.78 317.222 1108.33 317.667z"/>
<path style="fill:#ffd0ad; stroke:none;" d="M1311 317L1312 318L1311 317z"/>
<path style="fill:#ffd2b0; stroke:none;" d="M1312 318L1313 319L1312 318z"/>
<path style="fill:#ffcca6; stroke:none;" d="M1379 318L1380 319L1379 318z"/>
<path style="fill:#ffd4b3; stroke:none;" d="M1313 319L1314 320L1313 319z"/>
<path style="fill:#ffc396; stroke:none;" d="M1378 320L1379 321L1378 320z"/>
<path style="fill:#f36402; stroke:none;" d="M1074 321C1074 330.22 1075.28 338.873 1076 348C1081.4 344.995 1087.99 346 1094 346L1129 346C1124.3 341.495 1118.9 338.469 1115.04 333C1112.83 329.853 1111.19 323.309 1107.61 321.603C1104.68 320.21 1100.16 321 1097 321L1074 321z"/>
<path style="fill:#fbd1b4; stroke:none;" d="M1109 321L1110 322L1109 321z"/>
<path style="fill:#ff6e03; stroke:none;" d="M1317 321C1327.44 335.139 1349.7 339.179 1365 331.215C1369.74 328.749 1374.55 325.831 1377 321L1317 321z"/>
<path style="fill:#ffcfac; stroke:none;" d="M1398 321L1399 322L1398 321z"/>
<path style="fill:#800101; stroke:none;" d="M1442 321L1443 322L1442 321z"/>
<path style="fill:#f79754; stroke:none;" d="M1109 322L1110 323L1109 322z"/>
<path style="fill:#ff9445; stroke:none;" d="M1317 322L1318 323L1317 322z"/>
<path style="fill:#ffa969; stroke:none;" d="M1398 322L1399 323L1398 322z"/>
<path style="fill:#ffa868; stroke:none;" d="M1318 323L1319 324L1318 323z"/>
<path style="fill:#f9b788; stroke:none;" d="M1110 324L1111 325L1110 324z"/>
<path style="fill:#ffbf90; stroke:none;" d="M1319 324L1320 325L1319 324z"/>
<path style="fill:#ffa35e; stroke:none;" d="M1373 325L1374 326L1373 325z"/>
<path style="fill:#ffc69d; stroke:none;" d="M1397 325L1398 326L1397 325z"/>
<path style="fill:#fcd7bd; stroke:none;" d="M1111 326L1112 327L1111 326z"/>
<path style="fill:#ffa765; stroke:none;" d="M1322 326L1323 327L1322 326z"/>
<path style="fill:#ffb681; stroke:none;" d="M1372 326L1373 327L1372 326z"/>
<path style="fill:#ffa059; stroke:none;" d="M1397 326L1398 327L1397 326z"/>
<path style="fill:#010101; stroke:none;" d="M1073 327L1074 328L1073 327z"/>
<path style="fill:#f79a59; stroke:none;" d="M1111 327L1112 328L1111 327z"/>
<path style="fill:#ffd5b5; stroke:none;" d="M1234 327C1235.25 327.685 1235.55 327.749 1237 328C1235.75 327.315 1235.45 327.251 1234 327z"/>
<path style="fill:#ffb37b; stroke:none;" d="M1237 327C1238.77 327.779 1240.04 327.912 1242 328C1240.23 327.221 1238.96 327.088 1237 327z"/>
<path style="fill:#ffa461; stroke:none;" d="M1242 327C1246.47 328.876 1252.18 328 1257 328C1252.53 326.124 1246.82 327 1242 327z"/>
<path style="fill:#ffd1af; stroke:none;" d="M1257 327C1258.77 327.779 1260.04 327.912 1262 328C1260.23 327.221 1258.96 327.088 1257 327z"/>
<path style="fill:#ffd2b0; stroke:none;" d="M1323 327L1324 328L1323 327z"/>
<path style="fill:#ffd6b8; stroke:none;" d="M1371 327L1372 328L1371 327z"/>
<path style="fill:#ffe1cb; stroke:none;" d="M1218.67 328.333C1218.22 328.778 1219.28 328.722 1219.33 328.667C1219.78 328.222 1218.72 328.278 1218.67 328.333z"/>
<path style="fill:#ffc69c; stroke:none;" d="M1220.67 328.333C1220.22 328.778 1221.28 328.722 1221.33 328.667C1221.78 328.222 1220.72 328.278 1220.67 328.333z"/>
<path style="fill:#ffad71; stroke:none;" d="M1222.67 328.333C1222.22 328.778 1223.28 328.722 1223.33 328.667C1223.78 328.222 1222.72 328.278 1222.67 328.333z"/>
<path style="fill:#ff9344; stroke:none;" d="M1224.67 328.333C1224.22 328.778 1225.28 328.722 1225.33 328.667C1225.78 328.222 1224.72 328.278 1224.67 328.333z"/>
<path style="fill:#ff6d03; stroke:none;" d="M1209 330C1210.03 332.44 1211.03 335.472 1213.39 336.972C1217.95 339.873 1227.75 338 1233 338L1299 338C1291.49 331.777 1280.44 330.013 1271 328.95C1250.11 326.596 1229.8 329.571 1209 330z"/>
<path style="fill:#ff974a; stroke:none;" d="M1267 328C1268.25 328.685 1268.55 328.749 1270 329C1268.75 328.315 1268.45 328.251 1267 328z"/>
<path style="fill:#ffd2b1; stroke:none;" d="M1270.67 328.333C1270.22 328.778 1271.28 328.722 1271.33 328.667C1271.78 328.222 1270.72 328.278 1270.67 328.333z"/>
<path style="fill:#ff9b51; stroke:none;" d="M1325 328L1326 329L1325 328z"/>
<path style="fill:#ffa765; stroke:none;" d="M1369 328L1370 329L1369 328z"/>
<path style="fill:#ffd6b7; stroke:none;" d="M1396 328L1397 329L1396 328z"/>
<path style="fill:#f7934f; stroke:none;" d="M1112 329L1113 330L1112 329z"/>
<path style="fill:#ffe9da; stroke:none;" d="M1208.33 329.667C1208.28 329.722 1208.22 330.778 1208.67 330.333C1208.72 330.278 1208.78 329.222 1208.33 329.667z"/>
<path style="fill:#ffc49a; stroke:none;" d="M1209 329C1210.25 329.685 1210.55 329.749 1212 330C1210.75 329.315 1210.45 329.251 1209 329z"/>
<path style="fill:#ff9d56; stroke:none;" d="M1212.67 329.333C1212.22 329.778 1213.28 329.722 1213.33 329.667C1213.78 329.222 1212.72 329.278 1212.67 329.333z"/>
<path style="fill:#ff842a; stroke:none;" d="M1214.67 329.333C1214.22 329.778 1215.28 329.722 1215.33 329.667C1215.78 329.222 1214.72 329.278 1214.67 329.333z"/>
<path style="fill:#ffa563; stroke:none;" d="M1275 329C1276.25 329.685 1276.55 329.749 1278 330C1276.75 329.315 1276.45 329.251 1275 329z"/>
<path style="fill:#ffd4b5; stroke:none;" d="M1326 329L1327 330L1326 329z"/>
<path style="fill:#ffd6b8; stroke:none;" d="M1368 329L1369 330L1368 329z"/>
<path style="fill:#ff994f; stroke:none;" d="M1396 329L1397 330L1396 329z"/>
<path style="fill:#fbccac; stroke:none;" d="M1113 330L1114 331L1113 330z"/>
<path style="fill:#ffb681; stroke:none;" d="M1280.67 330.333C1280.22 330.778 1281.28 330.722 1281.33 330.667C1281.78 330.222 1280.72 330.278 1280.67 330.333z"/>
<path style="fill:#ffc79e; stroke:none;" d="M1328 330L1329 331L1328 330z"/>
<path style="fill:#ffa665; stroke:none;" d="M1366 330L1367 331L1366 330z"/>
<path style="fill:#ffab6d; stroke:none;" d="M1209 331L1210 332L1209 331z"/>
<path style="fill:#ffb782; stroke:none;" d="M1285 331L1286 332L1285 331z"/>
<path style="fill:#ffb986; stroke:none;" d="M1330 331L1331 332L1330 331z"/>
<path style="fill:#ffa461; stroke:none;" d="M1364 331L1365 332L1364 331z"/>
<path style="fill:#ffb178; stroke:none;" d="M1395 331L1396 332L1395 331z"/>
<path style="fill:#010101; stroke:none;" d="M1441 331L1442 332L1441 331z"/>
<path style="fill:#f8a46a; stroke:none;" d="M1114 332L1115 333L1114 332z"/>
<path style="fill:#ffb782; stroke:none;" d="M1288 332L1289 333L1288 332z"/>
<path style="fill:#ffc092; stroke:none;" d="M1332 332L1333 333L1332 332z"/>
<path style="fill:#ffab6d; stroke:none;" d="M1362 332L1363 333L1362 332z"/>
<path style="fill:#ffb987; stroke:none;" d="M1210 333L1211 334L1210 333z"/>
<path style="fill:#ffbc8c; stroke:none;" d="M1291 333L1292 334L1291 333z"/>
<path style="fill:#ffa96b; stroke:none;" d="M1335 333L1336 334L1335 333z"/>
<path style="fill:#ffb37c; stroke:none;" d="M1360 333L1361 334L1360 333z"/>
<path style="fill:#ffc9a2; stroke:none;" d="M1394 333L1395 334L1394 333z"/>
<path style="fill:#ffad71; stroke:none;" d="M1293 334L1294 335L1293 334M1337.67 334.333C1337.22 334.778 1338.28 334.722 1338.33 334.667C1338.78 334.222 1337.72 334.278 1337.67 334.333z"/>
<path style="fill:#ff9548; stroke:none;" d="M1356 334L1357 335L1356 334z"/>
<path style="fill:#ffc092; stroke:none;" d="M1357 334L1358 335L1357 334z"/>
<path style="fill:#f79552; stroke:none;" d="M1116 335L1117 336L1116 335z"/>
<path style="fill:#ffc8a0; stroke:none;" d="M1211 335L1212 336L1211 335z"/>
<path style="fill:#ff9e57; stroke:none;" d="M1295 335L1296 336L1295 335z"/>
<path style="fill:#ffba88; stroke:none;" d="M1341.67 335.333C1341.22 335.778 1342.28 335.722 1342.33 335.667C1342.78 335.222 1341.72 335.278 1341.67 335.333z"/>
<path style="fill:#ff9b52; stroke:none;" d="M1343 335C1344.25 335.685 1344.55 335.749 1346 336C1344.75 335.315 1344.45 335.251 1343 335z"/>
<path style="fill:#ff8024; stroke:none;" d="M1346 335C1347.51 335.683 1348.32 335.826 1350 336C1348.49 335.317 1347.69 335.174 1346 335z"/>
<path style="fill:#ffa35f; stroke:none;" d="M1350 335C1351.25 335.685 1351.55 335.749 1353 336C1351.75 335.315 1351.45 335.251 1350 335z"/>
<path style="fill:#ffd6b8; stroke:none;" d="M1353.67 335.333C1353.22 335.778 1354.28 335.722 1354.33 335.667C1354.78 335.222 1353.72 335.278 1353.67 335.333z"/>
<path style="fill:#f79a5b; stroke:none;" d="M1117 336L1118 337L1117 336z"/>
<path style="fill:#ff9b52; stroke:none;" d="M1297 336L1298 337L1297 336z"/>
<path style="fill:#f89f63; stroke:none;" d="M1118 337L1119 338L1118 337z"/>
<path style="fill:#ffd7b9; stroke:none;" d="M1212 337L1213 338L1212 337z"/>
<path style="fill:#ffb884; stroke:none;" d="M1299 337L1300 338L1299 337z"/>
<path style="fill:#ffc092; stroke:none;" d="M1392 337L1393 338L1392 337z"/>
<path style="fill:#f8a46c; stroke:none;" d="M1119 338L1120 339L1119 338z"/>
<path style="fill:#ff9448; stroke:none;" d="M1213 338L1214 339L1213 338z"/>
<path style="fill:#ff6c03; stroke:none;" d="M1214 338C1217.28 349.335 1229.3 346 1239 346L1312 346C1302.07 336.495 1290.75 338 1278 338L1214 338z"/>
<path style="fill:#ffd6b9; stroke:none;" d="M1301 338L1302 339L1301 338z"/>
<path style="fill:#ff6b03; stroke:none;" d="M1376 353C1381.71 355.395 1389.85 354 1396 354L1437 354L1440 338L1408 338C1403.69 338 1397.34 336.838 1393.32 338.603C1390.61 339.797 1388.91 342.901 1386.91 344.961C1383.7 348.264 1380.1 350.957 1376 353z"/>
<path style="fill:#f8aa75; stroke:none;" d="M1120 339L1121 340L1120 339z"/>
<path style="fill:#ff9c56; stroke:none;" d="M1302 339L1303 340L1302 339z"/>
<path style="fill:#ff9950; stroke:none;" d="M1391 339L1392 340L1391 339z"/>
<path style="fill:#ffffff; stroke:none;" d="M839 340.559C835.044 341.034 831.253 343.186 829.742 347.015C828.122 351.124 829 356.663 829 361L829 386C829 389.789 828.341 394.394 829.742 397.995C831.629 402.843 836.999 405.305 842 404.631C846.394 404.039 850.167 401.33 851.427 396.996C854.415 386.727 852 372.669 852 362C852 357.293 852.868 351.481 851.107 347.015C849.222 342.236 843.922 339.967 839 340.559z"/>
<path style="fill:#f8a36a; stroke:none;" d="M1121 340L1122 341L1121 340z"/>
<path style="fill:#ffa360; stroke:none;" d="M1214 340L1215 341L1214 340z"/>
<path style="fill:#ffbb8a; stroke:none;" d="M1304 340L1305 341L1304 340z"/>
<path style="fill:#ffcfad; stroke:none;" d="M1390 340L1391 341L1390 340z"/>
<path style="fill:#ff7904; stroke:none;" d="M1439 340C1437.97 363.709 1423.18 388.478 1406.99 404.999C1402.64 409.436 1397.9 413.38 1393 417.185C1389.78 419.681 1386.14 421.499 1384 425L1414 425C1417.39 425 1423.55 426.154 1426.41 423.972C1430.38 420.95 1430.32 409.611 1431.08 405C1433.62 389.687 1435.99 374.374 1438.13 359C1438.93 353.213 1441.31 345.521 1439 340z"/>
<path style="fill:#ffd9be; stroke:none;" d="M1306 341L1307 342L1306 341z"/>
<path style="fill:#f8a66f; stroke:none;" d="M1124 342L1125 343L1124 342z"/>
<path style="fill:#ffb179; stroke:none;" d="M1215 342L1216 343L1215 342z"/>
<path style="fill:#ffaa6d; stroke:none;" d="M1307 342L1308 343L1307 342z"/>
<path style="fill:#ffa15e; stroke:none;" d="M1389 342L1390 343L1389 342z"/>
<path style="fill:#ffad72; stroke:none;" d="M1388 343L1389 344L1388 343z"/>
<path style="fill:#f8a56e; stroke:none;" d="M1127 344L1128 345L1127 344z"/>
<path style="fill:#ffbf92; stroke:none;" d="M1216 344L1217 345L1216 344z"/>
<path style="fill:#ffb179; stroke:none;" d="M1310 344L1311 345L1310 344z"/>
<path style="fill:#ffb783; stroke:none;" d="M1387 344L1388 345L1387 344z"/>
<path style="fill:#f7924f; stroke:none;" d="M1129 345L1130 346L1129 345z"/>
<path style="fill:#fbceaf; stroke:none;" d="M1130 345L1131 346L1130 345z"/>
<path style="fill:#ffc093; stroke:none;" d="M1386 345L1387 346L1386 345z"/>
<path style="fill:#f36202; stroke:none;" d="M1077 346L1078 356C1084.73 352.256 1094.49 354 1102 354L1155 354C1150.79 347.272 1143.87 349.61 1137 347.845C1118.31 343.044 1096.26 346 1077 346z"/>
<path style="fill:#f8a771; stroke:none;" d="M1132 346L1133 347L1132 346z"/>
<path style="fill:#ffb47f; stroke:none;" d="M1162.67 346.333C1162.22 346.778 1163.28 346.722 1163.33 346.667C1163.78 346.222 1162.72 346.278 1162.67 346.333z"/>
<path style="fill:#ff6a03; stroke:none;" d="M1152 349C1155.78 356.289 1162.22 361.374 1168 367.015C1175.46 374.291 1183.41 383.606 1193 388C1187.56 378.198 1181.62 368.585 1175.8 359C1173.57 355.334 1170.85 349.076 1166.82 347.118C1162.83 345.184 1156.19 348.436 1152 349z"/>
<path style="fill:#ffa96c; stroke:none;" d="M1167 346L1168 347L1167 346z"/>
<path style="fill:#ffcdab; stroke:none;" d="M1217 346L1218 347L1217 346z"/>
<path style="fill:#ff6b03; stroke:none;" d="M1218 346L1222 355C1233.31 352.308 1246.41 354 1258 354L1326 354C1321.94 351.188 1316.83 347.597 1312 346.418C1303.18 344.264 1292.07 346 1283 346L1218 346z"/>
<path style="fill:#ffb682; stroke:none;" d="M1313 346L1314 347L1313 346z"/>
<path style="fill:#ffc8a1; stroke:none;" d="M1385 346L1386 347L1385 346z"/>
<path style="fill:#fcdcc7; stroke:none;" d="M1135.67 347.333C1135.22 347.778 1136.28 347.722 1136.33 347.667C1136.78 347.222 1135.72 347.278 1135.67 347.333z"/>
<path style="fill:#ffab6f; stroke:none;" d="M1158.67 347.333C1158.22 347.778 1159.28 347.722 1159.33 347.667C1159.78 347.222 1158.72 347.278 1158.67 347.333z"/>
<path style="fill:#ffd0ae; stroke:none;" d="M1384 347L1385 348L1384 347z"/>
<path style="fill:#f7995b; stroke:none;" d="M1139 348C1140.25 348.685 1140.55 348.749 1142 349C1140.75 348.315 1140.45 348.251 1139 348z"/>
<path style="fill:#fcddc9; stroke:none;" d="M1142.67 348.333C1142.22 348.778 1143.28 348.722 1143.33 348.667C1143.78 348.222 1142.72 348.278 1142.67 348.333z"/>
<path style="fill:#fbd4b9; stroke:none;" d="M1146 348C1148.33 348.984 1150.46 348.981 1153 349C1150.67 348.016 1148.54 348.019 1146 348z"/>
<path style="fill:#ffae75; stroke:none;" d="M1153 348C1154.25 348.685 1154.55 348.749 1156 349C1154.75 348.315 1154.45 348.251 1153 348M1316 348L1317 349L1316 348z"/>
<path style="fill:#ffb886; stroke:none;" d="M1383 348L1384 349L1383 348z"/>
<path style="fill:#ffab70; stroke:none;" d="M1169 349L1170 350L1169 349z"/>
<path style="fill:#ff9952; stroke:none;" d="M1219 349L1220 350L1219 349z"/>
<path style="fill:#ffc9a4; stroke:none;" d="M1318 349L1319 350L1318 349z"/>
<path style="fill:#ffc69e; stroke:none;" d="M1380 350L1381 351L1380 350z"/>
<path style="fill:#ffa86b; stroke:none;" d="M1220 351L1221 352L1220 351z"/>
<path style="fill:#ff9348; stroke:none;" d="M1321 351L1322 352L1321 351z"/>
<path style="fill:#ff9a54; stroke:none;" d="M1379 351L1380 352L1379 351z"/>
<path style="fill:#ffae75; stroke:none;" d="M1171 352L1172 353L1171 352z"/>
<path style="fill:#ff9144; stroke:none;" d="M1323 352L1324 353L1323 352z"/>
<path style="fill:#ffd8bd; stroke:none;" d="M1324 352L1325 353L1324 352z"/>
<path style="fill:#ffc9a4; stroke:none;" d="M1377 352L1378 353L1377 352z"/>
<path style="fill:#ffb784; stroke:none;" d="M1221 353L1222 354L1221 353z"/>
<path style="fill:#ffc59c; stroke:none;" d="M1326 353L1327 354L1326 353z"/>
<path style="fill:#ffb682; stroke:none;" d="M1375 353L1376 354L1375 353z"/>
<path style="fill:#f36102; stroke:none;" d="M1079 354C1079.33 361.229 1082.71 367.274 1085 374C1085.69 372.751 1085.75 372.452 1086 371L1172 371C1168.37 365.846 1160.95 356.91 1154.96 354.603C1148.64 352.169 1138.72 354 1132 354L1079 354z"/>
<path style="fill:#ff6a03; stroke:none;" d="M1223 354C1223.64 356.788 1224.51 360.065 1227.38 361.397C1231.06 363.1 1237.03 362 1241 362L1273 362L1390 362L1420 362C1424.48 362 1429.31 361.204 1433 364C1434.96 360.884 1435.68 357.65 1436 354C1416.53 354 1396.41 352.526 1377 354.093C1368.54 354.777 1360.69 358.657 1352 358.871C1342.26 359.112 1333.47 354.501 1324 354.04C1290.51 352.41 1256.54 354 1223 354z"/>
<path style="fill:#ff9d59; stroke:none;" d="M1328 354L1329 355L1328 354z"/>
<path style="fill:#ffd5b7; stroke:none;" d="M1329 354L1330 355L1329 354z"/>
<path style="fill:#ffa05d; stroke:none;" d="M1373 354L1374 355L1373 354z"/>
<path style="fill:#ffb07a; stroke:none;" d="M1173 355L1174 356L1173 355z"/>
<path style="fill:#ffc59e; stroke:none;" d="M1222 355L1223 356L1222 355z"/>
<path style="fill:#ffae75; stroke:none;" d="M1331 355L1332 356L1331 355z"/>
<path style="fill:#ffcaa6; stroke:none;" d="M1370 355L1371 356L1370 355z"/>
<path style="fill:#ff954c; stroke:none;" d="M1334 356L1335 357L1334 356z"/>
<path style="fill:#ffbc8e; stroke:none;" d="M1335 356L1336 357L1335 356z"/>
<path style="fill:#ffa465; stroke:none;" d="M1366.67 356.333C1366.22 356.778 1367.28 356.722 1367.33 356.667C1367.78 356.222 1366.72 356.278 1366.67 356.333z"/>
<path style="fill:#ffd4b6; stroke:none;" d="M1223 357L1224 358L1223 357z"/>
<path style="fill:#ffbe92; stroke:none;" d="M1338.67 357.333C1338.22 357.778 1339.28 357.722 1339.33 357.667C1339.78 357.222 1338.72 357.278 1338.67 357.333z"/>
<path style="fill:#ffeadb; stroke:none;" d="M1340 357C1341.51 357.683 1342.32 357.826 1344 358C1342.49 357.317 1341.69 357.174 1340 357z"/>
<path style="fill:#ffe5d3; stroke:none;" d="M1359 357C1360.25 357.685 1360.55 357.749 1362 358C1360.75 357.315 1360.45 357.251 1359 357z"/>
<path style="fill:#ff944a; stroke:none;" d="M1362.67 357.333C1362.22 357.778 1363.28 357.722 1363.33 357.667C1363.78 357.222 1362.72 357.278 1362.67 357.333z"/>
<path style="fill:#ffbd8f; stroke:none;" d="M1175 358L1176 359L1175 358z"/>
<path style="fill:#ff9246; stroke:none;" d="M1224 358L1225 359L1224 358z"/>
<path style="fill:#ff8938; stroke:none;" d="M1347.67 358.333C1347.22 358.778 1348.28 358.722 1348.33 358.667C1348.78 358.222 1347.72 358.278 1347.67 358.333z"/>
<path style="fill:#ff9e5b; stroke:none;" d="M1349 358C1350.51 358.683 1351.31 358.826 1353 359C1351.49 358.317 1350.69 358.174 1349 358z"/>
<path style="fill:#ff8632; stroke:none;" d="M1353 358C1354.25 358.685 1354.55 358.749 1356 359C1354.75 358.315 1354.45 358.251 1353 358z"/>
<path style="fill:#ff9f5c; stroke:none;" d="M1176 360L1177 361L1176 360z"/>
<path style="fill:#ffa05e; stroke:none;" d="M1225 360L1226 361L1225 360z"/>
<path style="fill:#ffae77; stroke:none;" d="M1226 362L1227 363L1226 362z"/>
<path style="fill:#ff6903; stroke:none;" d="M1227 362C1227.84 364.861 1228.86 368.24 1231.53 369.972C1234.31 371.781 1238.84 371 1242 371L1267 371L1389 371L1419 371C1422.23 371 1427.58 371.988 1430.35 369.972C1432.81 368.181 1432.86 364.724 1433 362L1227 362z"/>
<path style="fill:#ffbc8e; stroke:none;" d="M1178 363L1179 364L1178 363z"/>
<path style="fill:#010101; stroke:none;" d="M1437 363L1438 364L1437 363z"/>
<path style="fill:#ffbd91; stroke:none;" d="M1227 364L1228 365L1227 364z"/>
<path style="fill:#ff9d5a; stroke:none;" d="M1179 365L1180 366L1179 365z"/>
<path style="fill:#ffd8be; stroke:none;" d="M1180 366L1181 367L1180 366z"/>
<path style="fill:#ffccaa; stroke:none;" d="M1228 366L1229 367L1228 366z"/>
<path style="fill:#ffbb8d; stroke:none;" d="M1181 368L1182 369L1181 368z"/>
<path style="fill:#800101; stroke:none;" d="M1083 369L1084 370L1083 369z"/>
<path style="fill:#ff9852; stroke:none;" d="M1230 369L1231 370L1230 369z"/>
<path style="fill:#ff9f5e; stroke:none;" d="M1182 370L1183 371L1182 370z"/>
<path style="fill:#f36002; stroke:none;" d="M1086 371C1086.24 375.583 1087.71 379.057 1090 383C1100.41 380.52 1112.33 382 1123 382L1184 382C1181.09 378.189 1176.61 373.296 1172 371.603C1165.55 369.236 1155.82 371 1149 371L1086 371z"/>
<path style="fill:#ffb17d; stroke:none;" d="M1231 371L1232 372L1231 371z"/>
<path style="fill:#ff6803; stroke:none;" d="M1232 371L1237 380C1252.16 376.391 1270.44 379 1286 379L1383 379L1413 379C1416.69 379 1422.19 380.004 1425.61 378.397C1428.39 377.089 1429.23 373.674 1430 371L1232 371z"/>
<path style="fill:#ff934b; stroke:none;" d="M1232 372L1233 373L1232 372z"/>
<path style="fill:#ffc39c; stroke:none;" d="M1184 373L1185 374L1184 373z"/>
<path style="fill:#ffa96f; stroke:none;" d="M1185 375L1186 376L1185 375z"/>
<path style="fill:#ffccaa; stroke:none;" d="M1234 375L1235 376L1234 375z"/>
<path style="fill:#ffa060; stroke:none;" d="M1235 376L1236 377L1235 376z"/>
<path style="fill:#ff8f44; stroke:none;" d="M1186 377L1187 378L1186 377z"/>
<path style="fill:#ffcdab; stroke:none;" d="M1187 378L1188 379L1187 378z"/>
<path style="fill:#ffc29a; stroke:none;" d="M1236 378L1237 379L1236 378z"/>
<path style="fill:#ff6802; stroke:none;" d="M1238 379C1240.74 383.227 1246.43 382 1251 382L1285 382L1378 382C1392.95 382 1410.43 379.532 1425 383L1426 379L1238 379z"/>
<path style="fill:#ffb380; stroke:none;" d="M1188 380L1189 381L1188 380z"/>
<path style="fill:#ff9147; stroke:none;" d="M1238 381L1239 382L1238 381z"/>
<path style="fill:#f35f01; stroke:none;" d="M1091 382C1093.67 393.198 1106.98 390 1116 390L1194 390C1185.23 379.895 1174.25 382 1162 382L1091 382z"/>
<path style="fill:#ff8f44; stroke:none;" d="M1189 382L1190 383L1189 382z"/>
<path style="fill:#ffd2b4; stroke:none;" d="M1238 382L1239 383L1238 382z"/>
<path style="fill:#ff6702; stroke:none;" d="M1239 382L1241 390L1380 390L1407 390C1410.59 390 1415.44 390.819 1418.81 389.397C1421.91 388.093 1423.06 384.934 1424 382L1239 382z"/>
<path style="fill:#ffc8a4; stroke:none;" d="M1190 383L1191 384L1190 383z"/>
<path style="fill:#ffbd90; stroke:none;" d="M1239 384L1240 385L1239 384z"/>
<path style="fill:#ffa468; stroke:none;" d="M1191 385L1192 386L1191 385z"/>
<path style="fill:#010101; stroke:none;" d="M1092 386L1093 387L1092 386z"/>
<path style="fill:#ffa569; stroke:none;" d="M1240 387L1241 388L1240 387z"/>
<path style="fill:#ffba8b; stroke:none;" d="M1193 388L1194 389L1193 388z"/>
<path style="fill:#800101; stroke:none;" d="M1094 389L1095 390L1094 389z"/>
<path style="fill:#f35e01; stroke:none;" d="M1095 390C1097.03 393.57 1099.45 396.782 1102 400C1109.78 395.673 1122.29 398 1131 398L1199 398C1193.69 386.89 1181.58 390 1171 390L1095 390z"/>
<path style="fill:#f8904f; stroke:none;" d="M1194 390L1195 391L1194 390z"/>
<path style="fill:#ff6602; stroke:none;" d="M1241 390L1241 398L1375 398L1401 398C1404.66 398 1409.44 398.777 1412.91 397.397C1416.16 396.104 1417.72 393.003 1419 390L1241 390z"/>
<path style="fill:#fbccaf; stroke:none;" d="M1195 391L1196 392L1195 391z"/>
<path style="fill:#ff5a01; stroke:none;" d="M673 393L673 431L706 431L706 393L673 393z"/>
<path style="fill:#f89a5f; stroke:none;" d="M1196 393L1197 394L1196 393z"/>
<path style="fill:#fbccaf; stroke:none;" d="M1197 394L1198 395L1197 394z"/>
<path style="fill:#ffc49e; stroke:none;" d="M1240.33 395.667C1240.28 395.722 1240.22 396.778 1240.67 396.333C1240.72 396.278 1240.78 395.222 1240.33 395.667z"/>
<path style="fill:#f79151; stroke:none;" d="M1198 396L1199 397L1198 396z"/>
<path style="fill:#f9b083; stroke:none;" d="M1199 397L1200 398L1199 397z"/>
<path style="fill:#ff9652; stroke:none;" d="M1240 397L1241 398L1240 397z"/>
<path style="fill:#f35d01; stroke:none;" d="M1103 398C1103.97 401.5 1105.98 404.001 1108 407C1119.98 404.777 1132.85 406 1145 406L1209 406C1206.19 403.278 1202.74 399.933 1199 398.6C1191.96 396.092 1181.43 398 1174 398L1103 398z"/>
<path style="fill:#fbc6a6; stroke:none;" d="M1200 398L1201 399L1200 398z"/>
<path style="fill:#ff6502; stroke:none;" d="M1235 406L1368 406L1394 406C1397.61 406 1402.59 407.004 1406 405.687C1409.43 404.358 1411.4 401.082 1413 398L1281 398L1254 398C1250.26 398 1244.85 397.027 1241.38 398.603C1238.51 399.904 1236.65 403.488 1235 406z"/>
<path style="fill:#ffc29b; stroke:none;" d="M1239 399L1240 400L1239 399z"/>
<path style="fill:#fcd7c0; stroke:none;" d="M1202 400L1203 401L1202 400z"/>
<path style="fill:#fabe99; stroke:none;" d="M1203 401L1204 402L1203 401z"/>
<path style="fill:#ffaf7c; stroke:none;" d="M1238 401L1239 402L1238 401z"/>
<path style="fill:#f8a16c; stroke:none;" d="M1204 402L1205 403L1204 402z"/>
<path style="fill:#f89c64; stroke:none;" d="M1207 404L1208 405L1207 404z"/>
<path style="fill:#010101; stroke:none;" d="M1107 405L1108 406L1107 405z"/>
<path style="fill:#faba93; stroke:none;" d="M1209 405L1210 406L1209 405z"/>
<path style="fill:#f35c01; stroke:none;" d="M1110 406C1112.71 411.817 1118.18 416.405 1124 419L1121 415L1231 415C1219.95 405.407 1203.69 406 1190 406L1110 406z"/>
<path style="fill:#fab78f; stroke:none;" d="M1211 406L1212 407L1211 406z"/>
<path style="fill:#ffaa75; stroke:none;" d="M1233 406L1234 407L1233 406z"/>
<path style="fill:#ff6402; stroke:none;" d="M1224 410C1233.22 418.62 1251.23 415 1263 415L1365 415C1377.7 415 1398.45 419.756 1405 406L1292 406L1255 406C1248.81 406 1242.13 405.289 1236 406.213C1231.92 406.829 1227.97 408.849 1224 410z"/>
<path style="fill:#800101; stroke:none;" d="M1109 407L1110 408L1109 407z"/>
<path style="fill:#f8a674; stroke:none;" d="M1213 407L1214 408L1213 407z"/>
<path style="fill:#ffb585; stroke:none;" d="M1231 407L1232 408L1231 407z"/>
<path style="fill:#f89e68; stroke:none;" d="M1216 408L1217 409L1216 408z"/>
<path style="fill:#fbcaad; stroke:none;" d="M1217 408L1218 409L1217 408z"/>
<path style="fill:#ffc199; stroke:none;" d="M1228 408L1229 409L1228 408z"/>
<path style="fill:#ff9a5b; stroke:none;" d="M1229 408L1230 409L1229 408z"/>
<path style="fill:#ff9451; stroke:none;" d="M1220 409C1222.05 409.874 1223.75 409.953 1226 410C1223.95 409.126 1222.25 409.047 1220 409z"/>
<path style="fill:#f35b01; stroke:none;" d="M1121 415C1124.05 419.767 1127.69 422.984 1133 425C1133 421.894 1136.35 423 1139 423L1159 423L1245 423C1234.08 412.774 1219.79 415 1206 415L1121 415z"/>
<path style="fill:#ff6302; stroke:none;" d="M1233 415C1243.22 425.331 1257.74 423 1271 423L1358 423C1370.81 423 1386.4 426.584 1395 415L1233 415z"/>
<path style="fill:#f35a01; stroke:none;" d="M1132 423C1139.07 434.211 1154.77 431 1166 431L1261 431C1248.83 420.918 1233.74 423 1219 423L1132 423z"/>
<path style="fill:#ff6202; stroke:none;" d="M1247 423C1258 432.115 1270.62 431 1284 431L1350 431C1360.67 431 1376.13 433.512 1383 423L1247 423z"/>
<path style="fill:#ff7204; stroke:none;" d="M1357 436C1362.46 438.292 1370.11 437 1376 437C1391.56 437 1409.84 434.391 1425 438C1425.84 433.664 1426.81 429.423 1427 425L1397 425C1392.52 425 1387.4 424.179 1383 424.924C1379.13 425.578 1375.52 428.181 1372 429.833C1367.08 432.143 1361.95 433.805 1357 436z"/>
<path style="fill:#800101; stroke:none;" d="M1427 424L1428 425L1427 424z"/>
<path style="fill:#010101; stroke:none;" d="M1138 428L1139 429L1138 428z"/>
<path style="fill:#f35901; stroke:none;" d="M1147 431C1149.28 434.336 1153.22 435.143 1157 436.28C1166.32 439.089 1173.47 439.117 1183 439.004C1214.99 438.623 1247.01 439 1279 439C1266.78 429.129 1250.64 431 1236 431L1147 431z"/>
<path style="fill:#ff6102; stroke:none;" d="M1263 431C1268.89 435.454 1277.16 437.86 1284 440.6C1287.78 442.114 1291.89 444.389 1296 444.701C1306.69 445.509 1318.48 442.849 1329 441.299C1342.33 439.336 1355.54 437.522 1368 432C1364.3 430.448 1359.98 431 1356 431L1336 431L1263 431z"/>
<path style="fill:#ff7104; stroke:none;" d="M1326 442C1334.12 445.407 1347.2 443 1356 443L1424 443L1425 438C1415.6 435.221 1403.78 437 1394 437C1371.29 437 1348 435.483 1326 442z"/>
<path style="fill:#010101; stroke:none;" d="M1161 437L1162 438L1161 437z"/>
<path style="fill:#f35801; stroke:none;" d="M1176 439L1176 441C1197.63 441.446 1219.36 445.013 1241 445.961C1258.72 446.737 1276.33 445 1294 445C1283.25 436.87 1268.65 439 1256 439L1176 439z"/>
<path style="fill:#800101; stroke:none;" d="M1203 443L1204 444L1203 443z"/>
<path style="fill:#ff6f03; stroke:none;" d="M1327 443C1330.05 447.241 1334.96 452.563 1340 454.397C1345.17 456.279 1352.55 455 1358 455L1395 455L1412 455C1414.36 454.999 1417.49 455.461 1419.69 454.397C1423.04 452.772 1423.33 446.24 1424 443L1327 443z"/>
<path style="fill:#010101; stroke:none;" d="M1216 444L1217 445L1216 444z"/>
<path style="fill:#c04101; stroke:none;" d="M1333 449L1334 450L1333 449z"/>
<path style="fill:#800101; stroke:none;" d="M1422 449L1423 450L1422 449z"/>
<path style="fill:#ab5601; stroke:none;" d="M1334 450L1335 451L1334 450z"/>
<path style="fill:#800101; stroke:none;" d="M1335 451L1336 452L1335 451z"/>
<path style="fill:#010101; stroke:none;" d="M1336 452L1337 453L1336 452z"/>
<path style="fill:#ff6c03; stroke:none;" d="M1340 455C1344.15 460.889 1351.55 470.66 1358.01 473.972C1362.83 476.442 1370.72 475 1376 475L1417 475C1418.29 468.33 1420.13 461.74 1421 455L1340 455z"/>
<path style="fill:#010101; stroke:none;" d="M1350 466L1351 467L1350 466z"/>
<path style="fill:#800101; stroke:none;" d="M1351 467L1352 468L1351 467z"/>
<path style="fill:#c04101; stroke:none;" d="M1352 468L1353 469L1352 468z"/>
<path style="fill:#ff6702; stroke:none;" d="M1359 475C1363.03 480.722 1368.1 485.997 1373 491C1377.43 488.538 1382.06 489 1387 489C1395.52 489 1404.68 488.018 1413 490C1414.05 484.915 1415.42 479.944 1417 475L1359 475z"/>
<path style="fill:#800101; stroke:none;" d="M1415 479L1416 480L1415 479M1366 483L1367 484L1366 483z"/>
<path style="fill:#ff6402; stroke:none;" d="M1374 489C1374.93 493.599 1377.58 496.476 1380.58 500C1386.14 506.537 1394.29 516.621 1403.96 510.258C1410.24 506.125 1410.89 496.612 1413 490C1401.36 486.558 1386.13 489 1374 489z"/>
<path style="fill:#010101; stroke:none;" d="M1374 492L1375 493L1374 492M1411 494L1412 495L1411 494z"/>
<path style="fill:#800101; stroke:none;" d="M1386 506L1387 507L1386 506z"/>
<path style="fill:#ab5601; stroke:none;" d="M1390 510L1391 511L1390 510z"/>
<path style="fill:#800101; stroke:none;" d="M1392 511L1393 512L1392 511z"/>
</svg>
